<?xml version="1.0" encoding="utf-8"?>
<!-- Generator: Adobe Illustrator 25.0.0, SVG Export Plug-In . SVG Version: 6.00 Build 0)  -->
<svg version="1.1" id="Capa_1" xmlns="http://www.w3.org/2000/svg" xmlns:xlink="http://www.w3.org/1999/xlink" x="0px" y="0px"
	 viewBox="0 0 155.9 155.91" style="enable-background:new 0 0 155.9 155.91;" xml:space="preserve">
<style type="text/css">
	.st0{fill-rule:evenodd;clip-rule:evenodd;fill:#4F352A;}
	.st1{fill:#FFFFFF;}
	.st2{fill-rule:evenodd;clip-rule:evenodd;fill:#FFFFFF;}
	.st3{fill:#C27233;}
	.st4{fill-rule:evenodd;clip-rule:evenodd;fill:#C27233;}
	.st5{fill:none;stroke:#000000;stroke-miterlimit:10;}
</style>
<g>
	<g>
		<rect x="-225.95" y="0" class="st0" width="155.91" height="155.9"/>
	</g>
	<g>
		<polygon class="st1" points="-154.85,14.51 -156.47,14.51 -156.47,24.93 -149.4,24.93 -149.4,23.44 -154.85,23.44 		"/>
		<path class="st1" d="M-142.21,14.51h-1.51l-4.2,10.42h1.75l1.17-3.02h3.95l1.18,3.02h1.74L-142.21,14.51z M-144.45,20.42
			l1.43-3.66l1.38,3.66H-144.45z"/>
	</g>
	<polygon class="st1" points="-198.17,61.33 -198.17,58.53 -214.55,58.53 -214.55,97.42 -211.91,97.42 -211.91,77.47 -198.17,77.47 
		-198.17,74.67 -211.91,74.67 -211.91,61.33 	"/>
	<polygon class="st1" points="-158.43,61.33 -158.43,58.53 -176.49,58.53 -176.49,97.42 -158.43,97.42 -158.43,94.62 -173.81,94.62 
		-173.81,77.63 -158.43,77.63 -158.43,74.67 -173.81,74.67 -173.81,61.33 	"/>
	<polygon class="st1" points="-137.96,58.53 -137.96,61.33 -129.92,61.33 -129.92,97.42 -127.22,97.42 -127.22,61.33 -119.18,61.33 
		-119.18,58.53 	"/>
	<polygon class="st1" points="-80.41,61.33 -80.41,58.53 -98.47,58.53 -98.47,97.42 -80.41,97.42 -80.41,94.62 -95.79,94.62 
		-95.79,77.63 -80.41,77.63 -80.41,74.67 -95.79,74.67 -95.79,61.33 	"/>
	<g>
		<g>
			<path class="st2" d="M-194.62,122.47c0.69,0.66,1.07,1.41,1.15,2.24h-1.3c-0.15-0.63-0.44-1.14-0.88-1.51
				c-0.44-0.37-1.06-0.56-1.86-0.56c-0.97,0-1.75,0.34-2.35,1.03c-0.6,0.68-0.89,1.72-0.89,3.14c0,1.16,0.27,2.1,0.8,2.82
				c0.55,0.71,1.35,1.07,2.42,1.07c0.98,0,1.74-0.38,2.25-1.14c0.28-0.4,0.48-0.92,0.61-1.57h1.3c-0.12,1.04-0.5,1.91-1.15,2.61
				c-0.78,0.85-1.84,1.27-3.17,1.27c-1.14,0-2.11-0.35-2.89-1.04c-1.03-0.92-1.54-2.34-1.54-4.25c0-1.46,0.38-2.65,1.16-3.58
				c0.83-1.02,1.98-1.52,3.44-1.52C-196.28,121.48-195.31,121.81-194.62,122.47z"/>
		</g>
		<g>
			<polygon class="st2" points="-187.09,121.75 -185.74,121.75 -185.74,125.83 -180.61,125.83 -180.61,121.75 -179.26,121.75 
				-179.26,131.62 -180.61,131.62 -180.61,127.01 -185.74,127.01 -185.74,131.62 -187.09,131.62 			"/>
		</g>
		<g>
			<path class="st2" d="M-164.43,123.16c0.65,0.87,0.98,1.99,0.98,3.35c0,1.48-0.37,2.7-1.12,3.68c-0.88,1.14-2.13,1.72-3.75,1.72
				c-1.51,0-2.71-0.5-3.58-1.5c-0.77-0.97-1.16-2.19-1.16-3.67c0-1.34,0.33-2.48,0.99-3.43c0.85-1.22,2.11-1.83,3.78-1.83
				C-166.56,121.48-165.27,122.04-164.43,123.16z M-165.61,129.45c0.53-0.85,0.79-1.82,0.79-2.92c0-1.16-0.31-2.09-0.91-2.8
				c-0.6-0.71-1.43-1.06-2.49-1.06c-1.02,0-1.85,0.35-2.49,1.05c-0.64,0.7-0.97,1.73-0.97,3.1c0,1.1,0.28,2.01,0.83,2.77
				c0.56,0.74,1.45,1.11,2.69,1.11C-166.99,130.71-166.14,130.29-165.61,129.45z"/>
		</g>
		<g>
			<path class="st2" d="M-150.16,122.47c0.69,0.66,1.08,1.41,1.15,2.24h-1.3c-0.15-0.63-0.44-1.14-0.89-1.51
				c-0.44-0.37-1.06-0.56-1.86-0.56c-0.96,0-1.75,0.34-2.36,1.03c-0.59,0.68-0.89,1.72-0.89,3.14c0,1.16,0.27,2.1,0.81,2.82
				c0.54,0.71,1.35,1.07,2.42,1.07c0.98,0,1.73-0.38,2.25-1.14c0.28-0.4,0.48-0.92,0.61-1.57h1.3c-0.12,1.04-0.5,1.91-1.16,2.61
				c-0.78,0.85-1.84,1.27-3.17,1.27c-1.15,0-2.11-0.35-2.89-1.04c-1.03-0.92-1.54-2.34-1.54-4.25c0-1.46,0.39-2.65,1.15-3.58
				c0.83-1.02,1.98-1.52,3.45-1.52C-151.82,121.48-150.85,121.81-150.16,122.47z"/>
		</g>
		<g>
			<path class="st2" d="M-134.53,123.16c0.65,0.87,0.98,1.99,0.98,3.35c0,1.48-0.38,2.7-1.13,3.68c-0.87,1.14-2.12,1.72-3.75,1.72
				c-1.52,0-2.71-0.5-3.58-1.5c-0.78-0.97-1.16-2.19-1.16-3.67c0-1.34,0.33-2.48,0.99-3.43c0.86-1.22,2.11-1.83,3.78-1.83
				C-136.66,121.48-135.37,122.04-134.53,123.16z M-135.72,129.45c0.52-0.85,0.79-1.82,0.79-2.92c0-1.16-0.3-2.09-0.92-2.8
				c-0.6-0.71-1.43-1.06-2.49-1.06c-1.01,0-1.85,0.35-2.49,1.05c-0.64,0.7-0.96,1.73-0.96,3.1c0,1.1,0.28,2.01,0.83,2.77
				c0.55,0.74,1.45,1.11,2.69,1.11C-137.09,130.71-136.24,130.29-135.72,129.45z"/>
		</g>
		<g>
			<polygon class="st2" points="-127.33,121.75 -125.99,121.75 -125.99,130.44 -121,130.44 -121,131.62 -127.33,131.62 			"/>
		</g>
		<g>
			<path class="st2" d="M-109.98,127.58l-1.5-4.36l-1.6,4.36H-109.98z M-112.18,121.75h1.51l3.58,9.87h-1.47l-1-2.95h-3.9
				l-1.07,2.95h-1.37L-112.18,121.75z"/>
		</g>
		<g>
			<polygon class="st2" points="-95.08,121.75 -95.08,122.93 -98.4,122.93 -98.4,131.62 -99.76,131.62 -99.76,122.93 
				-103.09,122.93 -103.09,121.75 			"/>
		</g>
	</g>
	<g>
		<path class="st1" d="M-81.67,104.51c-0.56,0.57-1.25,0.85-2.05,0.85c-0.8,0-1.49-0.28-2.05-0.85c-0.56-0.57-0.84-1.25-0.84-2.06
			c0-0.79,0.28-1.47,0.85-2.04c0.56-0.56,1.24-0.84,2.04-0.84c0.8,0,1.48,0.28,2.05,0.84c0.57,0.56,0.85,1.25,0.85,2.04
			C-80.82,103.26-81.1,103.94-81.67,104.51z M-85.47,100.7c-0.49,0.49-0.73,1.07-0.73,1.76c0,0.69,0.24,1.28,0.72,1.77
			c0.48,0.49,1.07,0.73,1.76,0.73c0.69,0,1.28-0.24,1.76-0.73c0.48-0.49,0.73-1.08,0.73-1.77c0-0.69-0.24-1.27-0.73-1.76
			c-0.49-0.49-1.07-0.74-1.76-0.74C-84.4,99.96-84.99,100.21-85.47,100.7z M-83.77,100.86c0.39,0,0.68,0.04,0.87,0.12
			c0.33,0.13,0.49,0.4,0.49,0.8c0,0.29-0.1,0.5-0.31,0.63c-0.11,0.07-0.26,0.12-0.46,0.16c0.25,0.04,0.43,0.14,0.55,0.31
			c0.12,0.17,0.17,0.33,0.17,0.49v0.23c0,0.07,0,0.15,0.01,0.24c0,0.08,0.01,0.14,0.03,0.16l0.02,0.04h-0.52
			c0-0.01-0.01-0.02-0.01-0.03c0-0.01,0-0.02-0.01-0.03l-0.01-0.1v-0.25c0-0.37-0.1-0.61-0.3-0.73c-0.12-0.07-0.33-0.1-0.62-0.1
			h-0.44v1.25h-0.56v-3.18H-83.77z M-83.16,101.36c-0.14-0.08-0.37-0.12-0.68-0.12h-0.48v1.15h0.51c0.24,0,0.41-0.03,0.53-0.07
			c0.22-0.09,0.33-0.26,0.33-0.5C-82.95,101.6-83.02,101.44-83.16,101.36z"/>
	</g>
	<polygon class="st1" points="-160.71,53.7 -167.46,46.95 -167.46,46.95 -167.46,46.95 -174.22,53.7 -172.24,55.68 -167.46,50.91 
		-162.69,55.68 	"/>
</g>
<g>
	<path class="st3" d="M153.03,153.05H2.86V2.88h150.17V153.05z M153.03,0H2.86H0v2.88v150.17v2.86h2.86h150.17h2.87v-2.86V2.88V0
		H153.03z"/>
	<polygon class="st3" points="71.09,14.51 69.47,14.51 69.47,24.92 76.54,24.92 76.54,23.45 71.09,23.45 	"/>
	<path class="st3" d="M81.49,20.42l1.44-3.66l1.38,3.66H81.49z M83.73,14.51h-1.51l-4.2,10.42h1.75l1.17-3.01h3.94l1.19,3.01h1.74
		L83.73,14.51z"/>
	<polygon class="st3" points="27.77,61.33 27.77,58.52 11.4,58.52 11.4,97.43 14.03,97.43 14.03,77.48 27.77,77.48 27.77,74.68 
		14.03,74.68 14.03,61.33 	"/>
	<polygon class="st3" points="67.51,61.33 67.51,58.52 49.44,58.52 49.44,97.43 67.51,97.43 67.51,94.62 52.14,94.62 52.14,77.63 
		67.51,77.63 67.51,74.68 52.14,74.68 52.14,61.33 	"/>
	<polygon class="st3" points="87.98,58.52 87.98,61.33 96.02,61.33 96.02,97.43 98.72,97.43 98.72,61.33 106.75,61.33 106.75,58.52 
			"/>
	<polygon class="st3" points="145.52,61.33 145.52,58.52 127.46,58.52 127.46,97.43 145.52,97.43 145.52,94.62 130.15,94.62 
		130.15,77.63 145.52,77.63 145.52,74.68 130.15,74.68 130.15,61.33 	"/>
	<g>
		<path class="st4" d="M31.16,122.46c0.69,0.67,1.07,1.41,1.15,2.26h-1.31c-0.16-0.66-0.44-1.15-0.9-1.53
			c-0.43-0.37-1.06-0.56-1.86-0.56c-0.98,0-1.76,0.35-2.37,1.03c-0.59,0.67-0.91,1.72-0.91,3.14c0,1.17,0.28,2.11,0.81,2.83
			c0.56,0.71,1.37,1.1,2.44,1.1c0.99,0,1.74-0.4,2.27-1.15c0.26-0.41,0.46-0.94,0.6-1.58h1.3c-0.09,1.05-0.49,1.91-1.15,2.6
			c-0.77,0.87-1.84,1.3-3.17,1.3c-1.16,0-2.12-0.36-2.89-1.05c-1.03-0.92-1.56-2.35-1.56-4.28c0-1.44,0.39-2.65,1.16-3.57
			c0.83-1.02,1.99-1.53,3.45-1.53C29.49,121.47,30.46,121.79,31.16,122.46z"/>
		<polygon class="st4" points="38.72,121.73 40.08,121.73 40.08,125.81 45.22,125.81 45.22,121.73 46.57,121.73 46.57,131.64 
			45.22,131.64 45.22,127 40.08,127 40.08,131.64 38.72,131.64 		"/>
		<path class="st4" d="M60.26,129.46c0.53-0.85,0.8-1.84,0.8-2.93c0-1.16-0.32-2.09-0.93-2.81c-0.59-0.71-1.44-1.06-2.49-1.06
			c-1.02,0-1.87,0.35-2.5,1.06c-0.65,0.7-0.97,1.74-0.97,3.09c0,1.12,0.27,2.03,0.83,2.77c0.56,0.76,1.45,1.16,2.7,1.16
			C58.89,130.74,59.74,130.3,60.26,129.46z M61.45,123.18c0.64,0.85,0.98,1.97,0.98,3.32c0,1.5-0.37,2.71-1.13,3.71
			c-0.89,1.15-2.13,1.73-3.77,1.73c-1.52,0-2.72-0.53-3.59-1.51c-0.78-0.97-1.17-2.19-1.17-3.68c0-1.35,0.34-2.47,0.99-3.45
			c0.86-1.21,2.13-1.82,3.79-1.82C59.32,121.47,60.6,122.04,61.45,123.18z"/>
		<path class="st4" d="M75.77,122.46c0.7,0.67,1.07,1.41,1.16,2.26h-1.3c-0.16-0.66-0.47-1.15-0.9-1.53
			c-0.43-0.37-1.08-0.56-1.85-0.56c-0.99,0-1.77,0.35-2.39,1.03c-0.57,0.67-0.89,1.72-0.89,3.14c0,1.17,0.28,2.11,0.82,2.83
			c0.54,0.71,1.36,1.1,2.42,1.1c0.97,0,1.73-0.4,2.26-1.15c0.29-0.41,0.48-0.94,0.62-1.58h1.29c-0.11,1.05-0.5,1.91-1.16,2.6
			c-0.76,0.87-1.83,1.3-3.17,1.3c-1.14,0-2.1-0.36-2.88-1.05c-1.05-0.92-1.56-2.35-1.56-4.28c0-1.44,0.38-2.65,1.16-3.57
			c0.82-1.02,1.98-1.53,3.45-1.53C74.1,121.47,75.09,121.79,75.77,122.46z"/>
		<path class="st4" d="M90.26,129.46c0.54-0.85,0.8-1.84,0.8-2.93c0-1.16-0.32-2.09-0.93-2.81c-0.61-0.71-1.43-1.06-2.48-1.06
			c-1.03,0-1.85,0.35-2.52,1.06c-0.64,0.7-0.96,1.74-0.96,3.09c0,1.12,0.29,2.03,0.82,2.77c0.56,0.76,1.48,1.16,2.71,1.16
			C88.89,130.74,89.74,130.3,90.26,129.46z M91.46,123.18c0.64,0.85,0.97,1.97,0.97,3.32c0,1.5-0.37,2.71-1.11,3.71
			c-0.91,1.15-2.14,1.73-3.78,1.73c-1.52,0-2.71-0.53-3.57-1.51c-0.79-0.97-1.19-2.19-1.19-3.68c0-1.35,0.33-2.47,1-3.45
			c0.86-1.21,2.12-1.82,3.8-1.82C89.33,121.47,90.61,122.04,91.46,123.18z"/>
		<polygon class="st4" points="98.68,121.73 100.01,121.73 100.01,130.47 105.03,130.47 105.03,131.64 98.68,131.64 		"/>
		<path class="st4" d="M113.88,121.73h1.51l3.61,9.91h-1.5l-0.98-2.95h-3.92l-1.07,2.95h-1.38L113.88,121.73z M116.09,127.58
			l-1.51-4.38l-1.59,4.38H116.09z"/>
		<polygon class="st4" points="131.05,121.73 131.05,122.92 127.71,122.92 127.71,131.64 126.35,131.64 126.35,122.92 
			123.01,122.92 123.01,121.73 		"/>
	</g>
	<path class="st3" d="M142.77,101.37c-0.14-0.08-0.37-0.12-0.67-0.12h-0.48v1.15h0.51c0.23,0,0.41-0.03,0.53-0.06
		c0.21-0.1,0.33-0.27,0.33-0.51C142.98,101.6,142.91,101.44,142.77,101.37z M142.17,100.87c0.4,0,0.68,0.03,0.87,0.11
		c0.33,0.14,0.49,0.41,0.49,0.8c0,0.28-0.1,0.5-0.31,0.62c-0.11,0.08-0.26,0.14-0.46,0.16c0.25,0.04,0.43,0.14,0.55,0.31
		c0.11,0.16,0.16,0.33,0.16,0.49v0.23c0,0.07,0.01,0.14,0.02,0.23c0.01,0.08,0.02,0.14,0.03,0.17l0.01,0.04h-0.51
		c-0.01-0.01-0.01-0.02-0.02-0.03l0-0.03l-0.02-0.1v-0.26c0-0.36-0.1-0.61-0.29-0.73c-0.12-0.07-0.34-0.1-0.63-0.1h-0.44v1.25h-0.56
		v-3.17H142.17z M140.46,100.7c-0.47,0.48-0.73,1.07-0.73,1.76c0,0.7,0.26,1.28,0.72,1.77c0.49,0.49,1.08,0.73,1.77,0.73
		c0.68,0,1.27-0.24,1.76-0.73c0.48-0.49,0.72-1.07,0.72-1.77c0-0.69-0.23-1.28-0.72-1.76c-0.48-0.5-1.08-0.74-1.76-0.74
		C141.53,99.96,140.95,100.21,140.46,100.7z M144.26,104.51c-0.56,0.58-1.24,0.86-2.03,0.86c-0.81,0-1.49-0.28-2.06-0.86
		c-0.55-0.56-0.84-1.24-0.84-2.06c0-0.79,0.29-1.47,0.85-2.03c0.57-0.57,1.24-0.84,2.05-0.84c0.79,0,1.47,0.27,2.03,0.84
		c0.57,0.56,0.85,1.24,0.85,2.03C145.11,103.26,144.84,103.95,144.26,104.51z"/>
	<polygon class="st3" points="65.23,53.71 58.47,46.95 51.72,53.71 53.71,55.69 58.47,50.92 63.25,55.69 	"/>
</g>
<rect x="-133.24" y="309.92" style="fill:none;" width="323.81" height="55.27"/>
<text transform="matrix(1 0 0 1 -133.2446 316.6921)"><tspan x="0" y="0" style="fill:#4F352A; font-family:'GillSans-Bold'; font-size:10px;">ELABORADO EN CHILE POR CHOCOLATES DEL MUNDO S.A.</tspan><tspan x="0" y="12" style="fill:#4F352A; font-family:'FedraSansCondStd-Book'; font-size:10px;">Cordillera 331, Módulo D-19, Quilicura, Santiago, Chile. Teléfono: (+56) 2 24907600.</tspan><tspan x="0" y="24" style="fill:#4F352A; font-family:'FedraSansCondStd-Book'; font-size:10px;">Este producto debe mantenerse en un lugar fresco y seco a temperatura entre 15 y 23 °C  </tspan><tspan x="0" y="36" style="fill:#4F352A; font-family:'FedraSansCondStd-Book'; font-size:10px;">y a humedad relativa máxima de 60%. Resolución Seremi de Salud Región Metropolitana </tspan><tspan x="0" y="48" style="fill:#4F352A; font-family:'FedraSansCondStd-Book'; font-size:10px;">N°1913399364 del 25 de octubre de 2019.</tspan></text>
<rect x="-265.82" y="309.92" style="fill:none;" width="81.49" height="7.52"/>
<text transform="matrix(1 0 0 1 -265.8195 316.6925)" style="font-family:'GillSans-Bold'; font-size:10px;">Gill Sans Bold</text>
<rect x="-179.09" y="-61.86" style="fill:none;" width="267.62" height="17.62"/>
<text transform="matrix(1 0 0 1 -114.0417 -47.6411)" style="font-family:'GillSans-Bold'; font-size:21px;">Update Logo</text>
<rect x="-179.09" y="259.37" style="fill:none;" width="267.62" height="17.62"/>
<text transform="matrix(1 0 0 1 -141.199 273.5897)" style="font-family:'GillSans-Bold'; font-size:21px;">Información Legal</text>
<g>
	<rect x="-265.82" y="337.56" style="fill:none;" width="102.18" height="23.29"/>
	<text transform="matrix(1 0 0 1 -265.82 345.1004)" style="fill:#4F352A; font-family:'FedraSansCondStd-Book'; font-size:10px;">Fedra Sans Condensed Std</text>
</g>
<g>
	<g>
		<line class="st5" x1="-188.01" y1="313.68" x2="-142.24" y2="313.68"/>
		<g>
			<path d="M-145.66,316.08c-0.07-0.12-0.04-0.27,0.08-0.35l3.23-2.05l-3.23-2.05c-0.12-0.07-0.15-0.23-0.08-0.35
				s0.23-0.15,0.35-0.08l3.56,2.27c0.07,0.05,0.12,0.13,0.12,0.21s-0.04,0.17-0.12,0.21l-3.56,2.27c-0.04,0.03-0.09,0.04-0.13,0.04
				C-145.53,316.2-145.61,316.16-145.66,316.08z"/>
		</g>
	</g>
</g>
<g>
	<g>
		<line class="st5" x1="-168.01" y1="342.25" x2="-142.24" y2="342.25"/>
		<g>
			<path d="M-145.66,344.65c-0.07-0.12-0.04-0.27,0.08-0.35l3.23-2.05l-3.23-2.05c-0.12-0.07-0.15-0.23-0.08-0.35
				s0.23-0.15,0.35-0.08l3.56,2.27c0.07,0.05,0.12,0.13,0.12,0.21s-0.04,0.17-0.12,0.21l-3.56,2.27c-0.04,0.03-0.09,0.04-0.13,0.04
				C-145.53,344.77-145.61,344.73-145.66,344.65z"/>
		</g>
	</g>
</g>
</svg>
