<svg id="Capa_1" data-name="Capa 1" xmlns="http://www.w3.org/2000/svg" viewBox="0 0 155.91 155.9"><defs><style>.cls-1{fill:#4f352a;}.cls-2,.cls-3{fill:#fff;}.cls-3{fill-rule:evenodd;}</style></defs><rect class="cls-1" width="155.91" height="155.9"/><polygon class="cls-2" points="71.1 14.51 69.47 14.51 69.47 24.93 76.54 24.93 76.54 23.44 71.1 23.44 71.1 14.51"/><path class="cls-2" d="M83.73,14.51h-1.5L78,24.93h1.75l1.17-3h4l1.18,3h1.74ZM81.5,20.42l1.43-3.66,1.38,3.66Z"/><polygon class="cls-2" points="27.78 61.33 27.78 58.53 11.4 58.53 11.4 97.42 14.04 97.42 14.04 77.47 27.78 77.47 27.78 74.67 14.04 74.67 14.04 61.33 27.78 61.33"/><polygon class="cls-2" points="67.51 61.33 67.51 58.53 49.45 58.53 49.45 97.42 67.51 97.42 67.51 94.62 52.14 94.62 52.14 77.63 67.51 77.63 67.51 74.67 52.14 74.67 52.14 61.33 67.51 61.33"/><polygon class="cls-2" points="87.99 58.53 87.99 61.33 96.03 61.33 96.03 97.42 98.72 97.42 98.72 61.33 106.76 61.33 106.76 58.53 87.99 58.53"/><polygon class="cls-2" points="145.53 61.33 145.53 58.53 127.47 58.53 127.47 97.42 145.53 97.42 145.53 94.62 130.16 94.62 130.16 77.63 145.53 77.63 145.53 74.67 130.16 74.67 130.16 61.33 145.53 61.33"/><path class="cls-3" d="M31.32,122.47a3.43,3.43,0,0,1,1.15,2.24h-1.3a2.74,2.74,0,0,0-.88-1.51,2.83,2.83,0,0,0-1.86-.55,3,3,0,0,0-2.35,1,4.65,4.65,0,0,0-.9,3.14,4.6,4.6,0,0,0,.81,2.82,2.84,2.84,0,0,0,2.41,1.07,2.54,2.54,0,0,0,2.25-1.14,4.12,4.12,0,0,0,.61-1.57h1.31a4.48,4.48,0,0,1-1.16,2.61,4.09,4.09,0,0,1-3.17,1.27,4.19,4.19,0,0,1-2.88-1A6.38,6.38,0,0,1,25,123a4.2,4.2,0,0,1,3.44-1.52A4,4,0,0,1,31.32,122.47Z"/><polygon class="cls-3" points="38.86 121.75 40.21 121.75 40.21 125.83 45.34 125.83 45.34 121.75 46.69 121.75 46.69 131.62 45.34 131.62 45.34 127.01 40.21 127.01 40.21 131.62 38.86 131.62 38.86 121.75"/><path class="cls-3" d="M61.52,123.16a5.46,5.46,0,0,1,1,3.35,5.87,5.87,0,0,1-1.13,3.68,5,5,0,0,1-7.33.21,5.71,5.71,0,0,1-1.16-3.66,5.85,5.85,0,0,1,1-3.43,4.33,4.33,0,0,1,3.78-1.83A4.54,4.54,0,0,1,61.52,123.16Zm-1.19,6.29a5.4,5.4,0,0,0,.8-2.92,4.1,4.1,0,0,0-.92-2.79,3.09,3.09,0,0,0-2.49-1.07,3.23,3.23,0,0,0-2.49,1,4.45,4.45,0,0,0-1,3.1,4.57,4.57,0,0,0,.83,2.77,3.13,3.13,0,0,0,2.69,1.12A2.77,2.77,0,0,0,60.33,129.45Z"/><path class="cls-3" d="M75.78,122.47a3.47,3.47,0,0,1,1.15,2.24h-1.3a2.74,2.74,0,0,0-.88-1.51,2.81,2.81,0,0,0-1.86-.55,3,3,0,0,0-2.36,1,4.71,4.71,0,0,0-.89,3.14,4.6,4.6,0,0,0,.81,2.82,2.84,2.84,0,0,0,2.42,1.07,2.53,2.53,0,0,0,2.24-1.14,4.12,4.12,0,0,0,.61-1.57H77a4.42,4.42,0,0,1-1.16,2.61,4.09,4.09,0,0,1-3.17,1.27,4.18,4.18,0,0,1-2.88-1,5.42,5.42,0,0,1-1.54-4.25A5.47,5.47,0,0,1,69.43,123a4.22,4.22,0,0,1,3.45-1.52A4,4,0,0,1,75.78,122.47Z"/><path class="cls-3" d="M91.41,123.16a5.46,5.46,0,0,1,1,3.35,5.86,5.86,0,0,1-1.12,3.68,5,5,0,0,1-7.33.21,5.65,5.65,0,0,1-1.16-3.66,5.85,5.85,0,0,1,1-3.43,4.31,4.31,0,0,1,3.78-1.83A4.52,4.52,0,0,1,91.41,123.16Zm-1.18,6.29a5.48,5.48,0,0,0,.79-2.92,4,4,0,0,0-.92-2.79,3.07,3.07,0,0,0-2.48-1.07,3.25,3.25,0,0,0-2.5,1,4.44,4.44,0,0,0-1,3.1,4.57,4.57,0,0,0,.83,2.77,3.11,3.11,0,0,0,2.69,1.12A2.78,2.78,0,0,0,90.23,129.45Z"/><polygon class="cls-3" points="98.62 121.75 99.95 121.75 99.95 130.44 104.95 130.44 104.95 131.62 98.62 131.62 98.62 121.75"/><path class="cls-3" d="M116,127.58l-1.49-4.37-1.6,4.37Zm-2.19-5.83h1.51l3.58,9.87h-1.47l-1-3h-3.9l-1.07,3h-1.37Z"/><polygon class="cls-3" points="130.86 121.75 130.86 122.93 127.54 122.93 127.54 131.62 126.19 131.62 126.19 122.93 122.86 122.93 122.86 121.75 130.86 121.75"/><path class="cls-2" d="M144.28,104.51a2.9,2.9,0,0,1-4.1,0,2.93,2.93,0,0,1,0-4.1,2.9,2.9,0,0,1,4.09,4.1Zm-3.8-3.81a2.39,2.39,0,0,0-.73,1.76,2.48,2.48,0,0,0,.72,1.78,2.49,2.49,0,0,0,3.52,0,2.45,2.45,0,0,0,.73-1.78,2.48,2.48,0,0,0-4.24-1.76Zm1.7.16a2.28,2.28,0,0,1,.86.12.78.78,0,0,1,.5.8.71.71,0,0,1-.31.63,1.18,1.18,0,0,1-.46.15.74.74,0,0,1,.54.31.83.83,0,0,1,.17.49v.24a2,2,0,0,0,0,.23.59.59,0,0,0,0,.17l0,0H143a.06.06,0,0,1,0,0s0,0,0,0v-.35a.78.78,0,0,0-.3-.73,1.34,1.34,0,0,0-.62-.1h-.45V104h-.55v-3.18Zm.6.5a1.45,1.45,0,0,0-.68-.12h-.48v1.15h.51a1.5,1.5,0,0,0,.54-.07.48.48,0,0,0,.32-.49A.5.5,0,0,0,142.78,101.36Z"/><polygon class="cls-2" points="65.24 53.7 58.48 46.95 58.48 46.95 58.48 46.95 51.73 53.7 53.71 55.68 58.48 50.91 63.26 55.68 65.24 53.7"/></svg>