<?xml version="1.0" encoding="utf-8"?>
<!-- Generator: Adobe Illustrator 24.3.0, SVG Export Plug-In . SVG Version: 6.00 Build 0)  -->
<svg version="1.1" id="Capa_1" xmlns="http://www.w3.org/2000/svg" xmlns:xlink="http://www.w3.org/1999/xlink" x="0px" y="0px"
	 viewBox="0 0 169.3 898.9" style="enable-background:new 0 0 169.3 898.9;" xml:space="preserve">
<style type="text/css">
	.st0{fill:none;stroke:#C27234;}
	.st1{fill:#C27233;}
</style>
<path id="CL-AI" class="st0" d="M52.2,599.2l0.3-0.1l0.6-1.2l-0.2-0.5l-1.1-0.2l-0.4,0.4l-0.5,0.1l-1.8-0.8l-1-1.2l-0.9-0.9
	l-1.4-1.2l-0.6-0.2l-0.4,0.1l-0.5,0.6l-0.3,0.5l-0.7,0.1l-0.8-0.1l-0.4-0.1l-0.3-0.3l-0.1-0.6l0.3-1.3l0.5-0.1l1.1-0.1l0.4-0.2
	l0.6-1l-1.2-1.9l-0.5-1.1l0.1-0.9l0.4-0.7l0.5-0.2l0.4,0l1.1,0.3h0.6l1.6-0.6l3.6-2l1-0.8l2.2-2l0.7-1.5l0.5-1.4l1.5-4.2l0.1-2.4
	l-1,0.9l-1.4,1l-1.9-1.4l-1.4-1.3V570l-1.7-0.8l-1.1-0.4l-0.6-0.1l-0.7-0.2l-0.5-0.3l-1.8-1.9l-0.1-0.8l0.2-0.8l1.2-1.2l1.3-1.1
	l0-0.9l0.6-1.3l1.5-3.1l0.5,0l0.8-0.2l1.8-0.6l-0.1-0.7l0,0l1.2,0l0.4,0.3l1.1,0.3l3.5,0.6l0.3-1l0.6-0.9l0.8-0.8l0.6-0.4l0.9,0.3
	l0.1,1l1.4,2.3l0.4,0.2l0.8,0.1l0.5,0.4l0.6,0.8l0.3,0.7l0.1,1l2.5-0.3l0.3-1l2.5-1.2l0.6,0l1.4,0.6l0,0l0.9,1.2l0,0.5l-0.2,0.5
	l-1.6,2.6l-0.6,0.6l-0.7,2l0.3,0.7l0.1,0.6l-0.1,2.8l-0.8,0.6l-0.2,0.5L71,572l0.9,0.2l2.7,0h1.5l1.2-0.2l1.4-0.1l3.7,0.7l0.6,0.5
	l0.9,2.1l-0.2,0.8l-0.4,0.5l-0.8,0.1l-0.8,1.8l0.1,0.6l0.1,0.7l-0.1,0.7l-0.9,1.3l-0.5,0.1h-0.6l-0.5-0.2l-0.5-0.2l-0.8-0.6
	l-0.5-0.4l-0.4-0.1h-0.5l-0.7,0.3l-0.9,0.5l-0.4,0.1l-0.4,0.1l-0.4-0.1l-0.4-0.2l-0.4-0.2l-1-0.2l-0.4,0.2l-0.3,0.6l-0.5,0.2l-2-0.2
	l-0.4-0.2l-0.4-0.2l-0.5-0.3l-0.5-0.1l-0.5,0.3l-0.1,0.5l0.3,2.9l2.4,0.5l2.3,0.2l1.2,0.2l2.8,1l0.6,0.6l0.9,1.9l3,4l0.6,1.9l-3,4.4
	l-2.5,1.1l-0.4,0l-0.4,0.1l-0.4,0.1l-0.7,0.3l-0.7,0.5l-0.6,2.5l-0.2,1.9l0.7,3.1l0.5,0.3l0.5,0.2l0.8,0.4l0.4,0.5l0.4,1.9l-0.6,0.5
	l-0.1,0.1l-0.4,0.3l-0.6,0.8l-0.4,0.6l-0.4,0.7l-0.5,0.5l-0.5,0.2l-0.6,0.1l-0.5,0.1l-0.9,0.4l1.2,1.3l0.6,0.2l0.6,0.3l0.4,0.7
	l0.1,0.6l0.3,4.1l0.6,1.6l0.3,1.2l0.1,3l-0.1,0.8l-0.2,0.5l-2.3,2.2l-0.7,0.3l-1.2,0.1l-0.4,0.4l-0.7,5.7l1.5,2.1l0.5,0.6l0.2,0.9
	l-0.3,1.2l-0.3,0.4l-2.4,1.2l-1.1,2l-1.4,1.5l-0.6,0.2l-0.6-0.2l-0.5,0l-0.7,0.2l-0.4,0.2l-0.4,0.2l-0.3,0.4l-0.2,0.7l0.3,0.3
	l0.6,0.4l-0.4,2.4l-0.2,0.6l-0.2,0.5l-0.9,1.5l-0.4,0.8l-0.5,1.1l-1.4,4.1l0.1,0.7l0.3,0.5l0.7,0.7l0.5,0.3l0.8,0.2l1.5,1.9l0.4,3
	l0.2,4.2l-2.4,1.6l-1.2,0.5l-1.2,0.7l-0.4,0.3l-0.3,0.4l-0.2,0.6l0.4,1.9l0.1,0.6l0.2,1.7L58,685v1.2l-0.2,0.6l-0.5,0.7l-2.2,2.2
	l-0.5,0.4l-0.3,0.2l-0.5,0.3l-0.5,0.2l-0.8,0.2l-0.7,0l-0.4,0.1l-0.6,0.3l-0.6,0.4l-0.4,0.5l-1.3,1.9l-1.8,4.2l0,0.6l0.1,0.3l0,0
	l-0.3-0.2l-5.3-4.6l-4.3-3.7l-6.2-5.4l0,0l-0.1-0.3l-0.9-0.6l-1-0.2l-0.5,0l-0.7,0.3l-0.4,0.2l-0.4,0.2l-0.7-0.1l-1-1.4l-0.5-1.8
	l0.8-1.2l1.8-1.8l0.9-0.7l0.9,0.6l1.9,1.4l0.4-0.4l0.1-3.2l-1.6-0.5l-0.5-0.6l-0.3-0.3l-0.4-0.1l-1-0.2l0.5-0.5l1.6-0.4l-2.6-1
	l-2.4-2.2l-1.6-1.9l-1.7-1.2l-0.7,0l-0.5-0.2l-0.2-1.3l0.5-0.8l1.9-1.2l2,0.8l1.2,0.9l0.4,0.6l0.3,0.6l0.3,1l0.4,2.3l1.1,1.2
	l0.5-0.2l-1.4-3.4l-1.1-2l-0.1-0.5l0.5-0.3l1.9-0.1l2.2,0.1l0.5,0.3l0.6,0.7l1,0.4l1.9,0l1.5-0.5l3.2,2.9l0.1,1.3l0.6,1.6l0.3-1
	l0.8-0.9l0.9,0.1l0.4,0.2l0.5,0.3l0.8,0l0.9-0.8l0.3-0.4l0.1-0.7l0.1-0.9l-0.2-0.6l-0.1,1.4l-0.3,0.5l-0.7,0.6l-0.4,0.1l-0.5-0.2
	l-1.5-1l-1.7-1.9l-1.2-1.8l-0.2-2h1.5l0.2,0.9l0.6,0.8l0.3,0.2l0.4,0.2l0.9,0.3l3.8,0.2l-0.8-0.7l-1.3-0.4l-0.6,0l-0.5,0.1l-0.6,0.2
	l-0.7-0.1l-0.8-0.6l-3.5-4.4l-0.5-1.3l0.1-0.7l0.4-0.5l0.6-0.6l0.5-0.8l-0.3-1.8l-0.9-0.9l-0.8,1.7l0.7,0.5l0.1,0.6l-0.8,4l-0.4,0.4
	l-0.4,0.3l-2.1,0.9l-1.5-0.3l-0.3-0.2l-0.5-1.1l-0.6-0.1l-0.9,0l-3-0.6l-1.4-0.3l-1.5,0.4l-0.5,0.3l-0.9,0.2l-1.3-0.2l-0.5-0.2
	l-1.2-0.6l-0.5-0.8l2.5-3.7l0.8-0.5l0.4-0.1l1.6,0.2l0.5,0.2l1,0.8l0.4,1.4l0.6,1.7l0.7,0.9l0.6,0.3l0.7,0.1l0.4-0.2l-0.5,0
	l-0.9-0.3l-0.5-0.5l-0.3-1l0.7-1.3l1.6-0.4l0.9,0.4h0.5l0.8-0.3l-0.3-2.1l-1.2,0.6l-0.7,0.7l-2.1,0.5l-0.4-0.1l-3.8-4l-0.2-0.5
	l1-1.8l1.9-1.9l0.4-0.8l0.3-0.6l0.2-0.6l2.3-0.4l0.4,0.2l0.2,0.7l0,0.9l0.8,1.7l0.2,0.2l-0.2-0.4l-0.5-1.6v-0.7l0.2-0.9l0.2-0.4
	l1.3-1.3l1.9-3l-1.4-1.4l-0.4-0.2l-0.4,0l-0.4,0.2l-0.5,0.3l-0.5-0.2l-2-3l-0.3-1.6l0-0.6l-1.3-0.6l-5,0.5l-0.1,1.5l0.6-0.1l0.7,0
	l2,0.6l-0.2,0.7l-0.5,0.4l-0.5,0l-1.1-0.1l-1.4-0.6l-4.3-2.1l-2.2-1.1l-1.2-2.5l-0.1-0.8l0.2-0.6l1-1.2L15,626l-0.1-1.7l-0.4,0.7
	l-0.3,0.8l-1.8,1.9l-0.7,0.6l-1.2,0.8l-2.9,0.8l-0.7-0.2l-0.7-0.1L4.8,630l-1.2,0.6L3.2,631l-1,1.7l0.4,0.4l0.9-0.7l2-1.4l0.5,0
	l0.5,0.3l1.4,4.3l-0.2,0.7L6.5,637l-1,0.4l-0.4,0.2l-0.2,0l-0.2,0l-1.1-0.4l-1.3-1.6l-1.2-2.3L1,631.6l0.2-2.4l1.1-1.7l0.4-0.1
	l0.4,0l0.6,0.1l0.8-0.4l2.2-2l-0.1-0.9l0.8-1l0.4-0.4l1.2-0.6l0.8,0.7l0,0.3l0.1-1.6l0.3-1.3l2-2.2l0.7-0.1l1.6,0.1l2.4-2.7l0.6-1.4
	l1.2-3.4l0.6-2.1l0.3-0.4l3.9-0.5l1.6-0.4l0.6,0.2l0.3,0.9l0.9-0.6l1.9-0.3l0.4,0.3l0.5,0.7l0.9,2.8l-0.5,2.7l-0.3,0.7l-0.4,0.8
	l-0.4,0.4l-0.3,0.3l0.4-0.1l1.1-0.9l0.3-1.4l0-0.5l-0.2-0.6l0.2-0.5l1.4,1.4l0.1,0.6l-0.1,0.7l-0.2,0.7l-0.2,0.4l-0.5,0.5l-0.9,0.8
	l-0.9,0.6l-1.2,0.6l-2.1,0.6l-0.6,0.1l-0.5-0.2l-0.8-0.6l-0.4-0.4l-0.8-0.5l1.5,1.6l0.4,0.3l0.3,0.2l0.5,0l1.8-0.5l1.4-0.4l0.6-0.3
	l0.9-0.5l0.4-0.1l0.7,2.4l1.9,1.2l0.5,0.2l0.2,0l0.2-0.3l-0.5-0.7l-0.4-0.3l-0.6-0.4l-1.5-1.8l0.6-1.4l0.4-0.4l1.2-0.1l2.3,2.7
	l-0.1,1.4l-0.2,1l-0.3,0.8l-0.3,0.6l-1.3,1.6l-0.6,0.6l-1.5,2.3l1.5,1.1l0.7,0l0.5-0.3l0.3-0.4l0.9-2.1l0.2-0.6l0.4-1.4l3.1-3.8
	l0.7-2.2l1.9-3l-0.3-0.3l-1.7,2.5l-0.7,1.3l-0.3,0.9l-0.5,1.1l-0.5,0.6l-0.6,0.2l-0.1-1.1l0.1-0.5l0.6-1.3l0.3-1l0.2-1.1l0.1-0.9
	l-0.5-1.5l-0.4-1.1l2.2-4.4l1.8-2.1l0.3-0.4l0.6-0.5l0.5-0.2l0.4,0h0.9l1,0.1l0.6-0.1l0.4-0.4l-2.5-0.8l-0.7,0.1l-0.8,0.3l-0.6,0.5
	l-0.5,0.9l-0.3,0.4l-1.4,1.4l-0.4,0.1l0.2-2.4l1-5.9l2.1-2l1.8-1.3l1.4-0.6l0.6,0.5l0.1,0.8l0.6,0.6l0.8,0.7l1.6,1.2l1.1,0.4
	L52.2,599.2L52.2,599.2z M52.3,580.6l-0.1,0.1l-0.9,0.7l-0.8,0.4l-1.2,1.3l-0.2,0.4l-0.2,0.3l-0.2,0.2l-1.2,1l-1.1,0.5l-0.5,0.2
	l-0.6,0.1l-0.3-0.1l-0.3-0.2l-1.9-2.2l-0.1-0.3l0-0.3l0.1-0.2l1.8-0.6l0.3,0.1l0.2,0.2l0.3,0.3l0.8-0.2l0.2-0.1l-0.5-0.4l-1.2-0.5
	l-0.7,0.5l-0.2,0.2l-0.2,0.2l-0.2,0l-0.3-0.2l-0.2-0.2l-0.6-1.2l-0.2-0.6l-0.3-1.6l0.7-1.1l0.2-0.2l0.5-0.1l0.2,0l1.8-0.3l0.2-1.2
	l0.1-1l0-0.4l0.1-0.3l0.4-1l0.2-0.3l0.2-0.1l2.3-0.8l1.6-0.4l0.2,0.1l2.1,1.7l1.4,0.5l0.3,0.3l0.8,1.3l0.1,0.3l-0.1,0.3l-1.4,2
	l-0.2,0.2l-0.2,0.1l-0.3,0.1l-1.1-0.1l-0.2-0.2l-0.2-0.3l-0.9-0.4l0,0.3l0.2,0.3l1.1,0.7l0.5,0.2l0.7,0.2l0.2,0.4l-0.3,0.5l-0.3,0.4
	L52.3,580.6L52.3,580.6z M10.4,684.2l-0.2,0.2l-0.4,0.1l-0.8-1.9l-0.3-1.3l-0.4-2.6l0.1-0.4l0.4-1.1L6.9,676l-1.1,0.6l-0.3,0.1
	L5,676.7H4.7l-0.2-0.1l-0.3-0.2L4,676.2l0-0.3l0.1-0.3l0.4-0.3l0.3-0.2l0.5-0.2l0.6-0.1l0.5-0.1l0.3-0.1l0.4-0.2l0.3-0.3l0.3-0.5
	l0.2-0.4l-0.2-0.1l-0.8,0.5L4.3,674l-0.2-0.3l-0.7-5.8l0.1-0.3l0.7-0.9l0.5-0.4l2.6-0.7l0.3,0.1l0.2,0.3l1.1,3.5l0.1,0.5l0.1,1.6
	l0.6,2.1l0.4,1.2l0.5,0.6l0.7,1.2l0.9,2.7l0.2,2.3l-0.1,0.5l-0.2,0.2L10.4,684.2L10.4,684.2z M20.8,684l-2.2-1.6h-0.3l-0.3,0.2
	l-0.3,0.1l-0.3,0l-2.1-0.4l-1.2-0.7l-0.3-0.2l-0.1-0.3l-0.3-2l0.1-0.5l0.2-0.3l0.2-0.2l1.3-1.4l0.3-0.2l1.2-0.1l0.2,0.1l0.2,0.4
	l0.4,0.6l0.1,0.4l0.2,0.3l0.8,0.7l0.9-1.1l0.1-0.3L19,677l-0.2-0.1l-0.5-0.1l-0.6-1.2l-0.1-0.3l-0.2-1v-0.3l0-0.4l0.8-4l0.2-0.4
	l0.1-0.2l0.2-0.2l0.2,0.1l0.3,0.5l0.1,0.2l0.1,0.4v0.5l0.1,1l0.2,1.9l1.6,2.9l-0.4,1.3v1.6l0.1,1.2l0.1,0.5l0.9,1.2l0.3,0.1l0.2-0.2
	v-0.3l-0.1-0.3l0-0.3l0.2-0.1l0.2,0.1l0.2,0.2l0.2,0.2l0,0.4l-0.1,0.8L23,683l-0.2,0.2l-0.2,0.2l-0.9,0.6l-0.3,0.1l-0.4,0L20.8,684
	L20.8,684z M13.5,677.2l-0.3,0l-0.2-0.1l-2.6-5.7L9.4,668l0.1-0.8l0.6-0.1l1.2,0.3l2.1,0.5l0.5,0.3l1.5,1.2l2,0.5l0.2,0.3l0,0.4
	l-0.1,0.6l-0.6,3.9l-0.2,0.2l-0.3,0.1l-0.5,0L15,676l-0.4,0.3l-0.5,0.4L13.5,677.2L13.5,677.2z M36.8,594.4l-1.1-0.4l-0.7-0.8
	l-0.8,0l-1,0.3l-0.3,0l-0.7-0.1l-0.2-0.1l-0.2-0.2l-0.2-0.3L30,591l-0.6,0.3l-1.2,0.3l-0.3-0.1l-0.2-0.2l-0.1-0.6l-0.1-0.8l0-0.3
	l0.1-0.5l0.3-0.4l0.6-0.6l0.2-0.2l0.3-0.1l0.4,0l0.2,0.1l0.3,0.1l0.8-0.1l1.4-0.3l0.4-0.1l0.7-0.4l0.2-0.2l0.3-0.1l0.4,0.1l0.3,0.1
	l0.2,0.1l1.1,0.8l0.2,0.2l0.2,0.2l0.1,0.2l0.7,1.2l0.3,0.7l0,0.3l0,0.3l-0.1,0.7L36.8,594.4L36.8,594.4z M26.2,664.9l-0.7-0.4
	l-2.2-0.9l-0.3-0.3l0-0.3l1.5-1.6l0.2-0.2L25,661l1.7-0.9L27,660l4,1.4l2.2,0.9l0.5,0.1l0.3-0.1l0.5-0.5l0.2-0.1l0.2,0l0.2,0.2
	l0.3,0.4l0.1,0.3l-0.1,0.4l-0.3,1l-0.3,0.2l-0.6,0.2l-0.3,0l-0.7,0l-1.9,0l-0.4-0.1l-0.4-0.2l-0.3-0.1l-0.4-0.1l-0.2,0l-2.9,0.8
	L26.2,664.9L26.2,664.9z M27.2,582.3l-0.3-0.1l-0.5-0.2l-0.3-0.2l-0.2-0.2l-0.3-0.3l-0.4-0.5l-0.7-1.5l0-0.3l0.1-1.1l0.2-0.2
	l2.5-0.6l0.3-0.1l1.6,0l2.9,0.2l0.6,0.2l0.2,0.1l0.4,0.3l0.2,0.2l0.2,0.3l0.5,0.7l0.1,0.4l-2.6,0.7l-3,1.4l-0.4,0.2L27.2,582.3
	L27.2,582.3z M12.7,615.3l-0.2-0.2l-0.1-0.3l-0.2-0.8l0.1-0.3l0.2-0.2l2.1-0.6l0.3,0.1l-0.1-0.6l-0.5-0.1l-0.5,0.2l-0.7,0.1
	l-0.3-0.1l-0.2-0.4l-0.7-2.3l0.1-0.3l0.3-0.2l0.4-0.1l1.6,0.7l0.2,0.1l0.3,0.2l1.1-0.6l1.5-1.4l0.9-0.5l0.4-0.1l0.2,0.4v0.4
	l-0.1,0.4l-0.8,3.6l-0.1,0.3L18,613l-0.5,0.6l-1.9,1.9l-0.3,0.2l-1.3,0.1l-0.4-0.1l-0.6-0.2L12.7,615.3L12.7,615.3z M3.1,683.9
	l0.5-0.6l0.6,0.1l0.5-0.2l0.3-0.1l0.5-0.3l0.2-0.2l0.3-0.4l0.1-0.4l-0.2-0.2l-0.3,0.3l-0.3,0.3L5,682.5l-0.4,0.1H4.4l-1.2-0.1
	L2.3,682L2,681.1l0.3-2.9l0.5-1l0.4-0.1l3.8-0.4l0.9,0.2l0.1,0.4l0.4,3.8l-0.1,0.3l-0.8,0.8L7,682.6l-1.1,0.9l-0.5,0.4L5.1,684
	l-0.3,0.1l-0.5,0.1l-0.6,0L3.3,684L3.1,683.9L3.1,683.9z M23.7,607.1l-0.3-0.1l-0.2-0.3l-0.2-0.5l0-0.3l0.2-0.3l0.4-0.5l0.3-0.5l0-1
	l-0.2-1.1l-0.2-0.8v-0.4l0-0.4l0.1-0.5l0.1-0.3l0.2-0.6l0.2-0.5l0.3-0.5l0.4-0.2l1.7,0.8l0.3,0.2l0.2,0.2l0.4,0.7l0.2,0.5l0.4,1.3
	l0.2,1l-0.3,0.9l-0.2,0.2l-2.8,2.2l-0.2,0.1L23.7,607.1L23.7,607.1z M16,667.2l-0.3,0l-1-0.3l-1.1-0.5l-0.2-0.1l-0.1-0.3l0.3-0.5
	l-0.4-0.3l-0.5-0.1l-0.5,0l-0.4,0.2l-0.4,0.5l-0.3,0.5l-0.3,0.1l-0.4,0.1l-0.6,0.1l-0.4-0.1l-0.3-0.2l1-1.5l0.5-0.4L11,664l1.2-0.4
	l0.6-0.1l0.4,0l1.6-1.1l1.2-1.8l1-0.5l0.3,0.2l0.1,0.9l0,0.3l0,1l0,3.8l-0.9,0.7l-0.2,0.1L16,667.2L16,667.2z M38.2,606.6l-0.2,0
	l-0.3-0.2l-1.9-2.1l-0.1-2.7v-0.4l0.1-0.4l0.1-0.3l0.2-0.4l1-1.4l0.2-0.2l0.4-0.1l0.3,0l1.3,0.4l0.2,0.3l0.1,0.9l-0.6,4.9l-0.4,1.3
	l-0.2,0.3L38.2,606.6z M27,588l-0.2,0l-1.3-0.4l-0.1-0.2l0.3-0.6l2.7-2.6l0.3-0.2l0.3-0.1l0.3,0l3.2,0.8l0.2,0.2l0.7,0.9l0.1,0.3
	l-0.2,0.2l-0.6,0.4l-0.4,0.1l-1.1,0.3l-0.3,0l-1.4,0l-0.9-0.1l-0.3,0.1l-0.2,0.1L27,588L27,588z M36.5,580.7l-0.2,0l-1.1-1.6
	l-0.1-2.4l0.1-0.4l0.3-0.2l1.7-0.4l0.3,0l0.3,0.2l0.3,0.3l0.6,1.5l0.7,2.1l0,0.3l-0.2,0.1l-2,0.6L36.5,580.7L36.5,580.7z
	 M32.1,560.6l-0.5-0.6l-1.8-0.5l-0.8-0.3l-0.1-0.2l0.4-1.4l0.2-0.2l0.3-0.1l1.1,0.1l0.3,0.1l2.4-0.4l1-0.9l1.3,1.4l0.4,1.1l0.1,0.6
	l-1.6,0.1l-0.2-0.2l-0.3-0.1l-0.1-0.3l0.3-0.2l0.2-0.2l-0.3-0.2l-0.5-0.1l-1,0.3l-0.1,0.5l0.2,0.3l0.1,0.3l0.4,0.3l-0.6,0.7
	l-0.3,0.1L32.1,560.6L32.1,560.6z M31.9,596.3l-0.2,0l-2.1-0.8l-0.2-0.2l-0.4-1.6l0.4-0.5l1.1-0.5l0.3,0l0.3,0.1l0.2,0.2l0.2,0.7
	l0.2,0.2l0.2,0.1l0.3,0.1l0.3,0.1l0.7,0l0.3,0l0.6-0.1l0.5-0.1l0.5,0.1l0.2,0.1l0.2,0.2l0.3,0.4l0.2,0.5l0,0.5l-0.2,0.4l-0.2,0.1
	l-1.3,0l-1.6,0.1L31.9,596.3L31.9,596.3z M22.5,674.4l-0.2-0.1l-1.1-2.4l-0.1-0.3l0-0.5l0-0.7l0-1l0.6-0.9h0.3l0.4,0.3l0.6,0.6
	l1.9,2l0.4,0.9l-0.7,1.1l-0.2,0.2L22.5,674.4L22.5,674.4z M36,618.2l-0.6-0.5l-0.2-0.2l-2.2-2.9l0-0.4l0.2-0.7l0.2-0.2l0.3-0.1
	l0.8,0l0.3,0l1.6,0.7l0.8,0.6l0.3,0.3l0.1,0.4l-0.1,0.5l-1,1.9l-0.3,0.5l-0.2,0.1L36,618.2L36,618.2z M24.7,575.9l-2-0.5l-0.3-0.3
	l-0.1-0.2l-0.2-0.8l0.1-0.4l0.4-0.4l0.3-0.2l3.4-1l0.9,0.3l0.6,1l0.2,0.4l0,0.3l-0.4,0.2l-1.6,0.4l-1.2,0.3l-0.2,0.1L24.7,575.9
	L24.7,575.9z M32.2,605.7H32l-0.9-0.2l-0.2-0.2l-0.6-1.4l-0.3-0.9l0-0.5l0.9-1.1l0.6-0.4l0.3,0l0.9,0.5l0.8,0.8l0.4,0.8l0,0.4
	l-0.2,0.8l-0.4,1L32.2,605.7L32.2,605.7z M3,686.8l-0.2,0l-0.2-0.1l-0.3-0.3L2.2,686l0.1-1.7l0.4-0.1l0.8,0.4l0.8,0.2l0.4,0l0.3-0.1
	l0.2-0.2l1.1-1l1.4-1.2l0.8,0.6l0.3,0.7l0.1,0.3l0,0.4L8.6,685l-0.3,0.3l-3.1,1.2L3,686.8L3,686.8z M29.5,601.9l-0.1-0.2l0-0.3
	l0.1-0.7l0.1-0.4l0.2-0.2L30,600l0-0.5l0.2-0.3l0.2-0.3l0.2-0.3l0.1-0.3l0.2-0.2l0.3,0l0.3,0.2l0.2,0.1l0.3,0l0.4,0l0.2,0.1l0.2,0.2
	l0.2,0.2l0.5,0.2l0.2,0.2l0.2,0.1l0.3-0.1l0.4-0.4l0.3-0.1l0.3,0.2l0.1,0.4l-0.1,0.5l-0.2,0.4l-0.1,0.3l-0.3,0.5l-0.1,0.5l-0.2,0.1
	l-0.4-0.3l-0.2,0l-0.3-0.1l-0.3-0.5l-0.4-0.1l-0.4,0l-0.6-0.3l-0.6-0.1l-0.2,0.1l-0.3,0.2l-0.4,0.1l-0.3,0.3l-0.2,0.5l-0.2,0.3
	L29.5,601.9L29.5,601.9z M28.9,643.4l-0.2-0.2l-0.8-1l0-0.4l0-0.4l0.6-1.7l0.2-0.3l0.2-0.2l0.2-0.1l2.3,0.1l1,0.8l-1.5,2.1l-0.4,0.4
	l-0.2,0.2l-0.2,0.1l-0.9,0.3L28.9,643.4z M34.7,586.1l-0.7-0.7l-0.6-0.7l-0.2-0.3l-0.1-0.2l-0.1-1.9l0.1-0.4l0.3-0.3l0.3-0.2
	l0.3-0.1l0.4,0l0.4,0.2l0.2,0.3l1.1,2.9l0.1,0.8l-0.1,0.3l-0.1,0.2l-0.3,0.2l-0.4,0.1l-0.2-0.1l-0.2-0.1L34.7,586.1z M27.1,677.9
	l-0.3-0.4l-0.2-0.2l-0.3-0.2l-1.3-0.8l-0.4-0.2l-0.9-0.4l-0.3-0.2l-0.3-0.4l-0.1-0.3l2.3-1.8l0.3-0.2l0.2,0l0.4,0.1l0.3,0.3l0,0.4
	l-0.3,0.8l0,0.3l0.2,0.4l0.5,0.8l0.3,0.4l0.4,0.3l0.3,0.3l-0.1,0.4l-0.2,0.2l-0.5,0.3L27.1,677.9L27.1,677.9z M19.3,605.8l-0.1-0.3
	l0-0.5l0.1-0.3l0.3-1.4l0.1-0.3l0.1-0.2l0.2-0.3l0.2-0.2l0.2-0.1l1-0.5l0.4,0l0.2,0.2l0.1,0.3l-0.2,2.4l-0.5,1.4l-0.2,0.2l-0.2,0.1
	l-0.4,0.1l-0.2,0l-0.9-0.2l-0.2-0.2L19.3,605.8L19.3,605.8z M33.6,612.5l-0.2-0.1l-0.2-0.3l-0.3-0.8l0-0.4l0.2-0.4l0.1-0.2l0.5-0.8
	l0.3-0.3l2.6-1.6l0.3,0.1l0.2,0.4l0.1,0.3l0.1,0.4l0.1,1.3l-0.3-0.2l-0.2-0.2l-0.3-0.1l-0.8,0.1l-0.4,0.2l-0.3,1.2l-0.6,1.1
	L33.6,612.5L33.6,612.5z M10.7,661l0.1-0.5l-0.1-0.3l-0.2-0.2l-0.8-0.3l-0.3-0.1l-0.4,0l-0.3-0.1l-0.2-0.3l0.7-0.7l2.2-1.2l0.3,0.2
	l0.5,0.7l0.2,0.5l0.3,1.1l-0.1,0.4l-0.3,0.5l-0.2,0.2l-0.2,0.2l-0.5,0.3l-1.2,0.2L10.7,661L10.7,661z M31.5,610.7l-0.8-2l-0.4-0.8
	l-0.2-0.6l0.2-0.5l0.2-0.2l0.7-0.6l0.3-0.1l1.2,0.4l0.1,0.9l-0.1,1.9l-0.1,0.4l-0.3,0.7l-0.6,0.4L31.5,610.7L31.5,610.7z M25,583.7
	l-0.3-0.1l-1.1-0.7l-1.1-1.8l0-0.4l0.2-0.3l0.2-0.1l1.1-0.4l0.4,0.2l2,2.9l0,0.3l-1.1,0.3L25,583.7z M25,597.3l-1.7-1l-0.2-0.2
	l-0.3-0.3l-0.3-0.5l-0.1-0.3l0.1-0.4l0.2-0.2l0.4-0.1l0.3,0l0.3,0h0.8l0.4,0.1l0.2,0.2l0.3,0.4l0.2,0.4l0.7,1.7l-0.2,0.2l-0.3,0.1
	l-0.4,0.1l-0.5-0.1L25,597.3L25,597.3z M31.1,576l-0.4-0.1l-0.6-0.2l-0.4-0.2l-0.2-0.2l-0.1-0.3l0.1-1.8l1.9,0.3l0.5,0.1l0.4,0.2
	l0.2,0.2l0.2,0.2l0.1,0.3l0.1,0.4l0,0.5l-0.1,0.4l-0.3,0.2L31.1,576L31.1,576z M47,562.8l-0.5-0.1L45,562l-0.2-0.3l-0.1-0.5l0.1-0.4
	l0.3-0.7l0.2-0.3l1.2-0.6l0.4-0.1l0.2,0.1l0.2,0.2l0.1,0.2l0.1,0.4l-0.3,2.6L47,562.8L47,562.8z M31.8,570.4l-0.3,0l-0.2-0.1
	l-0.7-0.6l-0.3-0.4l-0.6-2.2l1.1-1.2l0.3,0.1l1.1,1.4l0.6,0.8l-1,0.4l-0.1,0.4l0,0.3L31.8,570.4L31.8,570.4z M38.1,565.5l-1.3-2.3
	l-0.5-1.2l0-0.4l0.1-0.4l0.2-0.5l0.2-0.2l0.4,0l1.3,1.8l0.4,1.7l-0.1,0.7l-0.5,0.6L38.1,565.5L38.1,565.5z M24.1,679.4l-0.4-0.9
	l-0.9-1.6l-0.1-0.3l0-0.3l0.3-0.3l0.3,0l0.5,0.2l1.3,0.8l0.9,0.6l0.3,0.3l0.2,0.3l0,0.3l-0.2,0.2l-0.4,0.2l-1,0.5l-0.5,0.2l-0.2,0
	L24.1,679.4L24.1,679.4z M25.9,594.8L25,594l-0.3-0.3l-0.2-0.2l-0.1-0.3l0-0.4l0.3-1.3l0.2-0.4l0.5,0l0.2,0.1l1.5,1.4l-0.5,2.2
	l-0.2,0.2l-0.2-0.1L25.9,594.8L25.9,594.8z M23.6,579.6l-0.7,0l-2.2,0l-0.8-0.4l0-0.3l0.1-0.3l0.7-0.8l0.3-0.2l0.4-0.1l0.3,0
	l0.5,0.1l1.4,0.3l0.3,0.2l0.1,1.2L23.6,579.6z M23.6,643l-0.4-0.9v-0.9l0.1-0.2l1.1-0.6l0.3-0.1l0.6-0.1l0.5,0l0.4,0.1l0.2,0.2
	l-0.1,0.4l-0.2,0.5l-0.2,0.2l-2,1.6l-0.3,0.2l-0.2-0.3L23.6,643L23.6,643z M12.5,585.3l-0.2,0l-0.3-0.2l-0.6-1.8l-0.1-0.3l0-0.3
	l0.1-0.3l0.2-0.3l0.4-0.5l0.4-0.1l0.3,0.2l1,1.6v1.2l-0.8,0.8L12.5,585.3L12.5,585.3z M32.6,572.9l-1.9-1l-0.3-0.3l-0.4-1.4l0.3-0.1
	l2.8,0.9l0.1,2.1l-0.1,0.2l-0.4-0.1L32.6,572.9L32.6,572.9z M26.1,576.6l-0.2,0l-0.2-0.2l-0.3-0.3l-0.1-0.3l0-0.3l0.1-0.2l1.3-0.6
	l1.8-0.2l1,1.4l-0.9,0.3L26.1,576.6L26.1,576.6z M30.8,678.5l-0.2,0l-0.4-0.2l-1.5-1l-1.1-1.1l-0.2-0.4l0.1-0.4l0.4-0.1l0.3,0l0.2,0
	l0.4,0.1l1.7,1.2l0.2,0.2l0.2,0.3l0.1,0.3L30.8,678.5L30.8,678.5z M37.6,613.5l-0.2,0l-1.7-0.5l-0.4-0.3l-0.1-0.3l0-0.4l0.9-1.7
	l0.3-0.2l0.2-0.1l0.8,0.8l0.5,2.6L37.6,613.5L37.6,613.5z M37.5,583.1l-0.6-0.4l-0.3-0.3l-0.1-1l0.1-0.4l2-0.5h0.3l0.2,0.2l0.1,0.3
	l-0.3,1.9l-0.3,0.3l-0.3,0.1l-0.5-0.1L37.5,583.1L37.5,583.1z M34.4,567l-1.4-0.3l-0.6-0.2l-0.3-0.2l-0.2-0.2l-0.1-0.2l-0.1-0.3
	l0.7-0.7l0.5-0.4l0.4-0.1l0.2,0.1l0.8,0.5l0.8,1l-0.1,0.5l-0.1,0.2l-0.2,0.1L34.4,567L34.4,567z M31.2,583.6l-0.5,0l-1.9-0.8
	l-0.3-0.3l0.3-0.2l1-0.2l0.5-0.1l0.3-0.1l0.4-0.2l0.3-0.2l0.3-0.1l0.7,0.2l0.2,0.3l-0.1,1l-0.2,0.2l-0.2,0.1l-0.6,0.3L31.2,583.6
	L31.2,583.6z M14,659.6l-0.2,0l-0.7-0.6l-0.2-0.2l-0.4-1.6l0.2-0.2l0.4,0l1.5,0.3l0.2,0.1l0.3,0.4l0.4,0.7l0.1,0.3l-0.2,0.4
	l-0.7,0.3L14,659.6L14,659.6z M17.8,579.3l-0.2-0.1l-0.4-0.6l-0.1-0.3l-0.1-0.6l0-0.5l0-1l0.1-0.3l0.2-0.2h0.3l1,0.6l0.2,0.3
	l0.1,0.4l0,0.3l-0.3,1.5l-0.4,0.3l-0.2,0.1L17.8,579.3L17.8,579.3z M33.4,598.2l-1.3-0.4l-0.5-0.2l-0.1-0.2l0.1-0.3l0.3-0.2l0.8-0.3
	l0.4-0.1l1.8,0l0.2,0.1l0.1,0.4l0,0.5l-1.3,0.6l-0.2,0L33.4,598.2L33.4,598.2z M34.5,570.5l-1.8-0.3l-0.2-0.3l-0.1-0.9l2.8-0.3
	l0.3,0.1l0.1,0.9l0,0.4l-0.3,0.2l-0.3,0.1l-0.4,0.1L34.5,570.5L34.5,570.5z M49.2,555.5l0.8-0.5l0.9-0.2l0.7,0.7l0.5,0.2l0.3,0l0,0
	l-0.3,0.3l-1.1,0.1L49.2,555.5L49.2,555.5z"/>
<path id="CL-MA" class="st1" d="M46.6,779.6l-0.4,0l-0.6-0.2l-0.6-1.6l-0.3-3.2l-0.1-3.2l-0.4-2.5l-0.3-0.7l-0.8-0.9l0.2,0.7
	l0.6,1.5L44,771l0.9,9.6l-0.2,1l-0.5,0.3l-0.6-0.3l-3.5-3l-0.4-0.5l-0.3-0.9l0.1-1.1l-0.6-1.9l-0.8-2.1l0.9-0.6l0.2,0.7l1.5,3.1
	l1.4,2.2l0.6-0.2l-1.4-3.1l-2-4.5l0.7-0.3l0.6-0.4l0.8-1.1l-2.6,0.7l-1.5,2l-1.1-2.2l-0.5-2l-1.1-0.3l-0.9-0.3l-0.4-5.4l0.1-0.7
	l0.4-1l1.6,0.5l1.8,2.1l0.5,1.2l0.9,2.3l0.2,1.3l0.2-0.2l0.1-0.7l-1.7-5.3l-1.5-5.7l0.7-0.5l0.7,1.1l0.2,0.8l-0.4-3.1l-0.4-0.5
	l-0.4,0.3l-1.7,2.1l-0.4,0.3l-0.4,0.1l-3.3-1l-0.8-0.6l-0.4-3.2l-1.1-0.8l-0.4-0.3l-0.2-3l0.4-0.7l0.8-0.6l0.7-0.3l4.1,0l0.4,0.3
	l0.6,1l1.3-3.6l0-2.9l0.5-0.8l1.5-0.5h0.6l1,0.7l0.2,0.9l0.5,0.4l0.5-1.3l-1.1-1.1l-0.9-0.2l-0.7-0.2l-1.2-1.4l-0.1-0.6l0.3-0.7
	l0.4-0.1l0.6-0.1l0.5-0.3l0.3-0.4l0.6-2.4l-3.3,3.3l-0.3,0.6l-0.5,1.8l-0.5,2.4l0.2,0.7l0.1,0.8l-0.2,0.5l-1.9,1.8l-0.3,0.2
	l-1.7-0.2l-1.4-1.6l-0.7-1.8l-1.3-2.9l-1-3.5l1.4-0.5l1.6,0.6l0.5,0.3l0.4,0.4l0.4,0.4l0.5,0.3l2.3,0.4l-0.9-0.6l-0.9-0.3l-1.5-1.1
	l-0.8-1l-3.1-0.3l-3.3-2.3l-3.9-3.9l-0.1-0.8l0.4-0.7l0.6-0.7l0.9-0.6l1.7-0.6l1.1,0.4l1.5-0.2l1,1.3l0.4,0.9l1.2,1.4l4.3,2l1.1,0.2
	l0.3,0l0.3-0.2l-4.8-2.3l-0.4,0l-0.4-0.2l-0.6-0.6l-2.9-5.3l0.2-1.2l0.4-0.6l1.2,0.2l0.8,0.3l1.7,1.9l4.2,1.7l0.1-0.8l-0.2-0.8
	l-1.9-0.9l-1.6-0.7l-3.6-1.9l-0.5-0.7l-0.4-1.9l1.8-1.1l0.9-0.3l0.9-0.2l0.6,0.2l0.7-0.2l0.2-0.9l-2.3,0.3l-1.6,0.4l-0.4-0.1
	l-0.4-1.2l-0.1-1.4l0.1-0.7l1.4-1.4l2.4-0.8l0.4-0.1l2.5,0.6l0.3,0.6l0.4,1.6l0.5,0.8l0.7,0.3l0.5,0.2l1.2,1.2l0.5,1.6l0.2-0.9
	l-0.4-1.3l-0.4-1l-0.3-0.3l-1.4-0.1l-0.5-1.9l0.1-1.6l-0.7-0.5l-1.4,0.2l-1.9-0.6l-0.3-0.4l-0.2-1.9l0.7-3.7l0.3-0.4l0.6,0l0.7,0.6
	l0.2,0.6l0.4,0.6l0.9,0.5L34,702l0.7-0.2l-0.8-0.5l-0.6-0.1L33,701l-1-1.7l-0.5-4.4l0.2-0.5l0.6-0.8l0.3-0.3l0.4-0.2l0.6,0l0.5,0.4
	l0.4,0.4l0.6,0.1l-0.1-0.6l-1.1-0.6l-2.7,0.3L31,694l0.2,2.5l-1.2,2.2l-0.7,2.3l-0.2,1.5l-0.6,3.8l-0.4,0.6l-0.4,0.1l-0.5-0.3
	l-2-2.6l-0.4-2.3l0-5l0.1-5.4l-0.3-0.9l-0.4-0.9l-0.3-1.4v-0.9l0.2-0.6l1.1-1.8l0.7,0.5l0.5,0.2l0.4-0.1l0.7-0.5l0.6-0.2l1.5,0.1
	l1.2,0.5l0,0l6.2,5.4l4.3,3.7l5.3,4.6l0.3,0.2l0,0l1.5,0.4l-0.9,1l-5.2,0.2l-0.7,0.1l-1.4,3.6l-0.8,2.7l0.2,0.5l1,1.3l1.2,5.1
	l-0.4,0.5l-0.6,0.6l-0.5,0.6l-0.4,2.4l0.7,0.8l0.4,0.4l0.4,0.5l-0.1,0.8l-0.5,0.7l-0.4,0.9l-0.2,0.9l0.3,0.8l1.6,1.2l1.6,1.3
	l0.3,0.4l0.3,0.5l0.7,1.7l0.2,0.8l0.3,4.1l0.4,2.8l0.9,4l0.3,0.5l0.4,0.3l0.5,0.1l0.5-0.1l0.6-0.2l0.6-0.3l0.6-0.6l1-1.4l0.4-0.3
	l0.6-0.4l1.9-0.9h0.5l0.5,0.5l0.3,0.4l0.4,0.3l0.6,0.2l0.6-0.1l0.4-0.3l0.4-0.8l0.4-0.5l0.4-0.2l0.5-0.1l2.2,0.3l1.4,1.1l-0.1,0.7
	l-0.7,1.5l0.1,0.7l0.6,0.7l0.4,0.6l0.5,0.9l0.2,0.6l-0.4,4.4l-0.3,0.6l-0.9,0.1l-1.1,2.1l0.3,1.5l0.4,0.6l0.5,0.3l0.6,0.4l0.7,1
	l-0.2,0.8l-0.5,0.6l-0.3,0.8l0,1.4l0.1,1.1l-0.7,2.5l-0.4,0.4l-0.6,0.4l2,5.3l0.6,0.3l0.9,0.2l0.5,0.2l0.4,0.2l0.5,0.3l0.9,0.7
	l2.3,2.6l0.3,0.8v1l0.6,2.4l3.9,0l8.3,0H96l5.8,0h2l1,0.4l3.2,1.5l5.5,2.4l3.1,0l1,0l3.6,1.5l0.7,0.3l1,0.7l1.9,1.4l1.8,0.3l1.4,0.2
	l1.3,0.2l2.5,0.7l-0.1,1.4l-0.7-1.3l-0.6-0.3l-3.1-0.5l-2.1-0.1l-0.4,0l-2.2-0.4l-0.7-0.3l-0.4-0.3l-0.7-0.7l-0.4-0.4l-0.9-0.5
	L119,783l-0.6-0.1l-0.4,0l-1,0.1l-3.2,1.4l-0.5,0.4l-0.2,0.5l-0.1,0.8l-0.1,2l-1.2,2l-0.4,0.6l-0.9,0.9l-0.3,0.5l-0.4,0.3l-1.9-0.3
	l-0.5-0.5l-1.9,0.4l-4.1,1.8l-0.5,0.3l-5.9,3.5l-0.6,0.1l-2.8,0.4l-2.3,0.4l-0.6,4.3l0.2,0.8l0.3,0.4l0,2.2l-1.4,4.1l-0.3,0.6
	l-0.4,0.5l-0.3,0.6l-0.2,0.9l-0.7,5.1l0,1l0.1,0.7l0.2,1l0.3,0.8l0.2,1l0.1,0.9l0.1,1.1l-0.1,1l-0.6,3.9l-0.4,0.8l-0.9,1.1l-3.4,1.6
	l-0.9,0.3l-3-1.5l-0.5-0.2l-0.8-0.1l-0.8-0.1h-0.4l-0.7-0.1l-1.2-0.4l-2.8-2.1l-1.5-0.4l-2.1-0.6l-1.2-0.6l-3.1-3.2l-1.1-1.6
	l-0.9-1.4l-0.4-0.8l-0.6-1.5l0.5-2.6l2.5-2.2l3.1,0.4l0.5,1.4l0.1,0.7l-0.1,1.1l-0.2,0.7l-1.1,0.8l-1.3,0.7l0.7,0.3l1.5-0.5l0.6-0.4
	l1-0.8l0.1-0.6l-0.1-1l-0.2-1.2l-0.1-0.6l0.2-1l0.4-0.6h2.2l0.5,0.6l0.9,5.6l-0.2,0.7l-0.4,0.4l-0.6,0.5l-1.7,1l-0.5,0.2l-0.6,0.5
	l0,0.9l0.2,0.2l0.9-0.6l2.1-0.8l0.6-0.4l0.8-1.5l-0.1-2l-0.2-1.5l0.1-1.8l0.5-2.1l4.7-2.5l0.5,0.1l0.5,0l0.6-0.2l0.4-0.2l0.4-0.3
	l0.3-0.4l3.6-6.3l0.2-0.7l-0.9-1.6l-1.6-0.5l-1.7-0.1l-4.6,2.5l-3.8,2.4l-1.5,1.2l-0.3,0.8l-1.9,2.9l-1,0.3l-0.5,0l-0.7-0.4
	l-0.4-0.5l-0.4-0.7l-0.3-0.6l-0.4-0.4l-1.5-0.5l-3.8,1l-0.5,0.6l1.5-0.2l1.8,0l2.8,2.4l0.4,0.8l-0.2,0.6l-2.5,0.8l-0.6-0.1l-0.7-0.6
	l-1.3-0.4l-0.9,0.5l0.5,0.8l0.7,0.3l0.4,0l0.6,0.3l-1.8,3.5l-0.6,0.2l-0.9-0.3l-0.5-0.7l-0.3-0.4l0.2,1.1l1.5,1.8l0.5-0.4l0.5-0.1
	l1.8,2.8l0.3,0.7l-0.3,0.6l-1.7,0.3l-0.2,0l-0.5-0.6l-3.5-2.9l-2.4-1.4l-1.4-1l-0.4-0.6l-1.9-1.5l-0.4-0.2l-0.5,0l-0.5-0.2l-1.2-1.2
	l-1.6-2.2l4,0.3l1.4-0.3l1,0.2l1.7,1.4l1.3,2.1l0.4,0.4l0.8-0.1l0.3-1.6l-1-0.9l-0.7-0.8l0.6-1.2l0.8,0.2h1l-0.9-0.6l-1.2-0.2
	l-0.5,0.2l-0.5,0.5l-0.5,0.2l-1.6-1.4l0.5-0.6l0.2-0.3l0.4-1.4l-0.7-1l-0.5-1.7l-0.2-2.3l0.8-1l3.5-2.3l2.5,1.5l2.1,0.7l0.8-0.2
	l2.1-1.8l2.1-2.5l0.3-0.6l2.9-0.4l2,1.5l0.9,0.2l1,0.1l1.3,0l0.7-0.1l0.5-0.1l0.6-0.2l2.6-1.3l-0.8-1.8l-0.5-0.4l-0.7,0l-0.4,0.2
	l-0.6,0l-2.3-0.4l-2.7-0.6l-3.8-0.5l-2.6,0.1l-0.6,0.1l-0.6,0.7l-0.5,1.1l-0.9,2.1l-2.3-1.9l0.9-1.3l0.5-0.4l0.6,0l0.8-0.4l-0.4-0.5
	l-1.9,0.6l-0.4,0.3l-1.5,0.2l-2.9,0l-2,2.4l0.3,0.4l1.3-0.8l2.3,0.9l0.1,0.7l-1.4,2l-0.8,0.8l-1.2,1l-1.1,0.2l-0.5,0.1l-0.5,0.7
	l-0.4,0.8l0.6,1.8l0.5,2l-0.1,1.3l-0.5,1.2l-1.9,0.7l-0.1,0.1l-0.6,0.3l-1.4,0.1l-2.1-0.9l-2.4-2.2l2.5-1.9l1.4-1.5l-2.2-0.3
	l-3.6-2.3l0.9-0.7l1.7,0.1l0.4,0.5l2.8-0.3l-0.4-0.9l-0.1-1.1l2.8-6.2l0.8-0.4l1.5,0.3l0.9,0.3l0.5,0.1l-0.5-0.7l-1.7-0.4l-0.6-0.1
	l-0.5,0l-1.4,0.3l-0.5,0.5l0.3,1.6l-0.2,0.6l-1.7,2.7l-0.7,0l-0.4-0.3l-0.1-0.6l-0.1-1.3l-0.5-0.3l-0.4,0.2l-2,1.7l-1,1l-0.7,1.1
	L39,799l-1.5-0.7l0.2-3.6l1-1.2l0.7-0.2l0.5,0.2l0.2-0.5l-0.9-0.3l-0.3-0.6l-0.9-2.7l0-0.9l0.3-0.5l0.5,0.1l0.5,0.1l0.5-1.6
	l-0.3-2.7l-1.1-1.9l-1.4-2.1l-0.3-0.8l0.1-1l0.5-0.4l0.5,0.5l0.3,1.1l2.1,3.4l0.5,0.1l0.8-0.7l2.1,1.4l0.4,0.1l1-0.2l0.4-0.3
	l0.5-1.3l0.9-1.4l1.2-0.6l1.3-0.7l0.7,0.1l0.1,2.1l-0.1,1.4l1.4,1.8l0.8,0.4l0.6-0.7l1-4.1l-0.2-1.1l-0.6,0.6l-0.6,1.6l0,0.7
	l-0.5,1.2l-1.2-0.9l0-2.5l1.5-3.8l1.1-0.6l1.9,1.4l-0.1,1.7l0.7,1.2l0.7,0.4l0.3,0.3L58,782l0.4,0.9l-0.7,3.5l-0.6,0.7l-2.4,1
	l-3.4,2.1l0.5,0.2l1.4-0.5l3.3-1.3l1-0.6l1.6-1.7l0.4-3.3l-0.3-0.6l-1.2-1.5l-1.8-2.3l-0.3-2.5l0.6-0.5l2.1,0.3l0.5-0.2l0.4-0.4
	l0.3-0.5l-0.2-3.8l-0.7-1.8l-2.7-3.2l-1-0.9l-0.5-0.3l-0.8-0.1l-0.8,0l-1.6-0.7l-2.5-1.7l-0.4-0.7l-0.7-0.6l-0.8,0.1l-1.5,0.4
	l-0.5,0.6l0.2,0.5l0.7,0.3l0.4-0.1l0.7-0.5l1.6,0.5l1.6,0.8l2.3,2l2.6,2.6l0.4,0.2l2.1,0.6l0.4,0.5l-0.3,1.4l-1.1,1.3l-1.7,0.2
	l-1.3-0.9l-0.4-0.9l-3-1.3l-3.6-2.7l-1.1-0.7l-0.8,0.1l1,2.8l0.6,0.4l0.7,0.1l0.5,0l0.6-0.3l0.6,0.4l0.5,0.5l0.6,1l-1.1,1.9
	l-0.4,0.3l-0.7,0.2l-1.2,0.4l2.2-0.3l1.1-0.9l0.7-0.4l0.6,0.4l0.2,0.8l-0.6,0.6l-1.2,0.5l-1.1,0.6l-0.9,0.6l-0.3,0.7L46.6,779.6
	L46.6,779.6z M128.4,860.8l0,3l-0.1,0.1l-0.1,0l-0.3,0l-0.2-0.1l-0.4-0.4l-0.6-0.7l-0.4-0.3l-2.4-1.2l0.7,1.3l0.2,0.2l0.2,0.3
	l0.4,0.3l0.8,0.3l0.2,0.6l-0.4,0.5l-0.6,0.3l-2.8,0.6l-1.9,0.2l-0.4,0l-0.4-0.1l-6.6-2.4l-1.2-0.5l-1.9-1l-0.2-0.7l0.1-0.3l0.5-0.6
	l0.1-0.3l-0.1-1.9l-0.2,0l-1.4,0.9l-0.1,1.8l-0.3,0.7l-6.3,1.4l-2.2,0.2l-0.6,0l-0.6-0.2l-0.5-0.3l-0.3-0.6l-0.1-1l0.3-0.5l0.4-0.5
	l0.9-1.6l0.1-0.4l-0.2-0.2l-1.6,2l-0.5,1l-0.2,0.5l0,0.3l-0.5,0.2l-0.7-0.2l-3.5-0.2l-2,1l-0.3,0.1l-0.2,0l-0.7-0.2l-0.4-0.3
	l-0.3-0.4l0.9-1.1l0.3-0.2l0.3-0.1l0.7-0.2l0.5-0.2l1.1-0.6l1.5-1l0.3-0.3l1-1.5l0.1-0.4l-0.2-0.2l-0.4,0l-1.1,0.1l-0.2,0.1
	l-1.2,1.3l0.3,0.3l0.5,0.3l-0.1,0.3l-0.8,0.5l-1.6,0.6l-1.3,0.3l-1.7-0.1l-0.4-1l0.3-0.2l0.8,0l1.4-0.5l0.2-0.2l-0.2-0.2l-0.3-0.1
	l-0.2,0l-1.1,0.3l-1.2,0.9l-1.4,1.8l-0.5,0.1l-0.2-0.2l0-0.4l0.2-0.4l0.2-0.3l0.3-0.4l0.2-0.3l0.1-0.3l0.5-2l0-0.7l-0.8-0.2
	l-0.5,0.4l0.1,0.4l-0.1,0.3l-0.3,0.4l-1.9,1.1l-0.3,0.1l-1.7-0.7l-0.4-0.2l-0.2-0.3l0-0.3l0.2-0.2l0.3,0l0.3-1l-0.1-1.2l-1.3-1.7
	l-0.3,0l-0.9,1l-1.4,3.5l-0.1,0.7l-0.2,0l-0.3-0.2l-2.9-2.2l-0.2-0.3l-0.5-0.1l-0.5,0.2l-0.8,0.7l-0.4,0.5l-0.3,0.1l-1.7,0.1l-0.2,0
	l-0.4-0.1l-0.3-0.3l-0.2-0.6l-0.4-1.8l-0.1-1.8l0.1-1.4l0.2-0.2l0.3,0l1,0.4l0.8,0.9l0.3,0.7l0.1,0.3l0.2,0.4l0.3,0.2l1.3,0.5
	l1.1,0.4l0.2,0l1.7-0.9l-2.1-2.4l-0.4-0.2l-0.2,0.1l-0.6,0.3l-0.3,0l-0.8-0.5l-0.2-0.3l-0.1-1l1-0.6l0.5-0.1l0.4,0l0.2,0l0.3,0.3
	l0.2,0.8l1.2,1.8l0.3,0.2l0.3,0.1l0.7,0.2l1.3-0.5l0.1-0.3l-0.3-0.3l-1.1-0.2l-0.3-0.2l-0.2-0.2l-0.3-0.5l-0.2-0.7L75,849l0.2,0
	l2.5,1.1l1.3-0.6l-0.8-0.5l0.3-0.5l0.7-0.5l0.3,0l3,1.8l3.9,1.2l0.6-1.7l0-0.4l0-0.4l-0.1-0.4l-0.2-0.8l0.2-0.4l0.8-0.5l0.7-0.2
	l0.8,0l0.6,0l1.9,0.2l0.2,0l0.7,0.3l0.1,0.3l-1,1.6l-0.7,1.7l-0.4,1.8l-0.4,2.5l0.6-0.7l1.4,1.2l-0.8-1.5l-0.1-0.3l-0.2-0.7l0.1-0.5
	l0.6-1.8l0.1-0.3l0.4-0.6l0.2-0.3l0.7-0.7l0.3,0l0.2,0.6l0.3,0.4l1.9,1.6l0.6,0.3l0.2,0.2l0.2,0.2l0.9,0.8l0.2,0.2l0.2,0.3l0.2,0.4
	l0.2,0.4l0.4,0.2l0.4,0l2-0.9l-1.7-1.3l-0.4-0.3l-0.8-0.4l-0.4-0.2l-0.9-0.5l-0.3-0.2l-0.4-0.3l-0.7-0.5l-0.2-0.3l-0.9-1.6l0.2-0.6
	l-0.1-0.5l-0.3-0.5l-0.2-0.3l-0.3-0.3l-0.4-0.3l-1.1-0.4l-0.4-0.1l-0.8-0.1l-1.5,0.1l-0.6,0l-0.3-0.1l-0.3-0.2l-0.3-0.3l-0.3-0.4
	l-0.7-2.9l0.7-0.2l0.4,0.4l1.4,1l2.4,1.2l5.4,3.1l3.4,3.1l0.3,0.2l1.2-1.4l0.1-0.3l-0.2-0.2l-1.3-0.3l-0.3-0.1l-0.4-0.4l-0.2-0.4
	l0-0.3l1.2-1.1l0.7-0.6l0.3-0.2l0.3,0l0.2,0l0.9,0.6l0.6,0.9l1.8,4l1.3,3.4l0.4,0.6l0.3-0.2l0.3-2.2l-1.2-2.9l-0.7-1.6l-0.3-0.2
	l-0.4-0.4l0.3-0.8l0.2-0.2l0.4,0l0.7,0.2l2,1.1l0.4,0.4l0.5,0.6l4.4,1.1l2.4,1.4l0.3,0.2l0.2,0.3l0.1,0.4l-0.1,0.3l-1.3,1.7
	l-0.2,0.1l-0.7,0.4l-0.3,0.3l-0.7,1.5l-0.2,0.5l0.6,1.7l0.2,0.2l0.2-1.1l0.6-1.6l0.5-1l0.2-0.4l0.2-0.3l0.6-0.4l0.4-0.1l0.2,0.1
	l0.2,0.3l0.2,0.6l0.3,0.8l0.1-0.1l0.4-0.7l-0.3-1.1l-0.2-0.4l0-0.6l0.1-0.5l0.3-0.5l0.2-0.1l0.8,0l0.2,0l0.5,0.2l0.7,0.6l0.2,0
	l0.2-0.3l0-1.1l-0.3-0.3l-0.3-0.2l-1.2-0.7l-3.3-2l-2.5-1.2l-0.5-0.2l-1.5-0.6l-0.3-0.2l-0.2-0.3l-0.4-0.6l-2-0.8l-0.5-0.1l-0.4-0.1
	l-0.4,0l-0.4-0.1l-0.5-0.2l-1.6-0.6l-2.9-2.1l-0.3-0.3l-0.2-0.4l-1.4-4.7l-0.5-2.6l-0.1-0.7l-0.1-0.6l0.1-0.6l0.4-0.7l0.3-0.3
	l4.1-2.6l0.2-0.1l0.6,0.1l0.4,0l0.2,0l0.4,0l0.9-0.3l7.2-4l0.2-0.2l0.2-0.4l0.1-0.6v-0.3l-0.3-3.1l-0.2-0.4l-0.3-0.3l-3.4-0.3
	l-0.6,0l-5.2,0.8l-0.2,0.1l-0.7,0.3l-0.6,0.4l-0.7,0.6l-0.2,0.3l-0.4,0.7l-0.3,0.2l-2.3,1.1l-0.3,0.1l-0.2,0l-0.3-0.1l-0.4-0.3
	l-3.3-2.8l-0.1-0.3l-0.5-2.3l-0.1-1.5l0-0.4l0.5-5.4l0.1-0.4l0.1-0.3l0.3-0.4l1.4-1.6l0.2,0.2l-0.3,0.7l0,0.5l0.4,1.5l0.3,0.1
	l2.1-0.7l0.3-0.1l0.4-0.2l0.2-0.2l0.2-0.2l0.2-0.2l0.1-0.3l0.5-1.7l0.1-0.4l0-0.5l-0.2-0.3l-1.9-0.3l-0.8-1.4l0-0.4l-0.2-0.4
	l-0.3-0.4l-0.4-0.2l-0.5-0.1h-0.2l-0.4,0.1l-0.5,0.1l-0.3-0.1l-0.1-0.3l0.4-0.6l0.5-0.3l3.3-0.6l0.3,0l0.4,0.1l0.5,0.3l0.2,0.2
	l0.2,0.4l0.3,0.6l0.6,0.9l0.3,0.3l0.4,0.4l0.4,0.2l0.4,0.1l0.4,0l0.4-0.2l3.1-1.9l0.4-0.3l0.3-0.5l1.6-2.8l0.2-0.6l0-0.4l-0.1-2.4
	l0.4-0.4l0.4-0.3l2-1.1l0.6-0.2l1,1.3l0.2,0.2l0.1,0.3l0.1,0.3l0,0.4l0.2,0.4l2,2.7l0.2,0.2l0.5,0.5l0.5,0.3l0.5,0.1l0.3,0l0.5-0.2
	l2-1l2.3-1.5l0.2-0.2l0.3-0.4l2.1,0.8l1.4,1.1l0,0.3l0,4.3l-0.1,14.4l0,1.9l0,5.2l-0.1,10l0,4.8l-0.1,10.3l0,0.6l0,5.9L128.4,860.8
	L128.4,860.8z M18.3,721.5l-0.2-0.1l-1.4-0.8l-0.4-0.5l0.5-1l0.6-0.5l1.1-0.8l0.5-0.2l0.4,0.3l0.6,0.4l-0.9-1.2l-0.5-0.1l-0.5,0.2
	l-1.5,1.2l-0.6,0.1l-0.5-0.8l0.1-1.3l0.4-2.6l-0.6-2.8l0.6-4.1l0.7-0.8l1.1-0.9l2.3-3.2l-0.7,0.3l-1.1,1.5l-2,2.3l-1.4,1l-0.3-0.6
	l-0.1-1.1l-0.6,0.8l-0.1,0.8l0,1.4l0,1.1l0.3,0.7l0.5,0.6l-0.4,3.7l-0.6,2.5l-0.6-0.1l-1.7-1.3l-1.3-2.6l-1.5-3.4l0.4-1.6l-0.4-1.9
	L8.1,705l-0.8-0.8l-0.6,0.3l-0.6,0.3l-0.4-1.5l-0.1-0.8l0-1.5l0.7-0.9l0.4-0.2l0.4,0.1l0.9,1.7l0.2,0.7l0.6,1.4l1.4,1.9l0.5,0.4
	l0.2,0l0-0.2l-0.7-1.2l-0.6-0.9l-0.3-0.4L9,702.8L8.3,701l0.1-1.3l0.8-0.2l0.4,0.5l1,1.6l0.6,0.2l1.5-2.1l0.2-0.5l-0.4-1.1l0.6,0.5
	l1.4,1.8l1,1.4l0.5-1.3l1.1-5.3l-1.1-1.3l-0.7-0.7l-0.4-0.3l-0.4-0.6l-1-2.2l-0.7-1.9l0.2-1.2l1.3-1l2.5-1.7l1.8-0.5l3.6,0.9
	l0.3,1.1l0.4,4.1l0.4,1.2l0.1,0.6l-0.1,3.4l0.6,3l0.1,0.6l0,2.3l-0.5,3.3l-0.3,1.3l-0.4,0.7l-0.2,1.1l0.4,1.2l-0.9,1l-0.9,1.9
	l0.1,0.8l1.2-1.2l-0.1-0.5l0.1-0.6l1.1-0.2l0.4,0.5l0.4,0.9l0.1,1.7l-0.9,5.4l-0.2,0.4l-1.1,1.4l-1.5,1.4l-0.6,0.2L18.3,721.5
	L18.3,721.5z M129.6,877.2l-0.4-0.1l-0.4-0.1l-0.4-0.5l-0.3-0.8l-0.4-0.4l-0.5,0l-0.6,0.5l2.5,2.7l1-0.3l0.5-0.3l0.4-0.2l0.6-0.1
	l0.9,0.2l1.2,0.5l3.2,1.6l0.3,0.6l-0.1,0.9l-0.3,0.6l0.8,0.2l1.1-0.1l-0.7,1.7l1.1,1.9l0.5,0.2l0.9,0.1l-0.2,2.5l-1.3,1.3l-0.2,0.2
	l-0.1,0L138,890l-0.2-0.5l-0.6-0.9l-1.4-1.6l-0.7-1.6l0.2-1.2l-2-1.7l-0.4-0.1l-0.6,0.8l-1,0.1l-1.2-1.1l-1.2-0.1l-2.2,0L126,883
	l-1,0.4l-0.5,0l-0.8-0.6l-0.8-1l-0.5-1l0.6-0.9l1.2-0.4l0.5-0.1l0.4,0.2l0.6-0.1l0.3-1.6l-2.3,0.8l-0.3-0.6l0.3-1.8l0.5-1.6l0.7-0.8
	l0.2-0.6l-2.8,2.2l-1.1,0.3l-2-0.6l-0.5-0.3l-0.5-0.5l-0.4-0.7l-0.5-2.1l-2.3,0.4l-0.5,0.2l-0.4,0.3l1.1-0.1l1.2,0.1l0.5,1.9
	l-1.9,0.7l-0.3,1.3l1.5,2.4l0.1,1.9l1.6,0.4l1.3,0.1l-0.2,1.9l-0.3,0.3l-2.8-0.7l-1.9,0.4l-1.2-2.8l0.5-1.1l0.9-0.2l0.3-0.3
	l-1.3-0.7l-0.5,0l-1.4,1.3l-0.7-1.4l-1.6-0.7l0.1-1l0.5-1.1l1.4-1.1l0.5-0.2l0.6-0.3l0.4-0.6H112l-0.8,0.5l-1.6,1.3l-2.7,0.8l-0.5,0
	l-1.1-1.1l1-0.2l0.4-0.3l-1.1-1.2l-2-0.1l-0.3-0.3l0.4-0.9l1.4-1.6l0.6-0.3l1.8-0.4l2.7-0.3l5-0.9l3-0.8l3.6-0.3l2.9,0.1l0.4-0.1
	l1.3-1l1.4-0.3l2.6-0.3l1.9,0.8l1.1,1.5l0.3,1.2l-0.2,0.8l-4.1,1.9l-0.3,0.5l-1.1,0.3l-2.2-0.6l-0.9-0.6l-0.6-0.7l-0.6-0.5l-0.4-0.3
	l-2-1.4h-0.4l-0.3,0.8l1.7,1.9l1.3,0.8l2.1,1.2l3.2,0.1l2.7,0.1l1.2,0.1l1.9,1.2l1.2,1.4l-0.1,0.6l-5.3,0.8L129.6,877.2L129.6,877.2
	z M44.4,831.3l0.9-0.6l0.2-2.9l-2.4,0.1l-0.8,0.6l-0.7,0.3l-0.5,0.2l-1.6,0l0.8-0.7l0.5-0.3l0.3-0.4l-0.2-1.2l-0.5,0l-0.7,0.1
	l-0.6-0.1l-0.4-0.4l0-1.2l0.2-0.6l0.3-0.3l0.8-0.1l0.5,0.4l0.4,0l0.4-0.3l0.6-0.6l0.4,0l1.4,0.7l0.3,0.5l0.2,0.6l0.5,0.8l0.5,0.3
	l1.6,0.5l0.5,0l1.7-0.1l1.6-0.3l0-0.8l-0.5,0l-0.4,0.4l-1.2,0.1l-1.2-0.1l-0.6-0.1l-1.3-0.3l-0.6-0.4l-2.2-3.6l-0.4-1.2l0.8-0.1
	l0.6,0.2l1,0.5l3.3,0.6l-0.5-1.5l-0.8-1.1l1.7-0.6l1.4,0.2l1.6,0.7l0.7,3.3l-0.3,1.4l-0.3,1.2l0.6,1.7l1.1-3.2l0.2-0.9l-0.5-1.1
	l-0.4-1.2l1.3,0.5l0.9,1.2l1.1,2.5l1.5-1.2l1.8,0.3l0.8,0.5l0.7,1.2l-0.1,0.8l-0.5-0.1l-0.5,0.2l-0.3,0.6l0.8,2l0.6-0.9l0.7-0.8
	l2,0.8l0.4,0.3l1.7,2.2l-0.6,0.4l-0.3,0.1l-0.3,1.3l-0.6,0.4l-0.5-0.1l-1.4-0.3l-1.2,1l0,2.2l0.3,0.3l0.7,0.3l0.6,0.2l-0.1,1.4
	l-1.8,0.2l-1.9,1.6h-0.5l-0.4-0.2l-0.7-0.9l-1.5,0.8l-2,1.3l-0.9,0l-2.2-1.1l-0.5-0.6l0.4-0.5l2,0l2.1-1.4l0.9-5.2l-1.3-0.7
	l-0.5,0.3l-1.2,1l-0.6,0.3l-1.6-0.1l-0.1-0.7l-0.1-0.8l-0.7-0.3l-0.8,3.2l0,0.7l-0.5,2.1l-1.6-0.7l-0.6-1.6l-0.6-1.7l-0.4-1.2
	L44.4,831.3L44.4,831.3z M138.6,864.5l1.7,0l1.8,0.2l1.6,0.2l2.5,0.1l1.1-0.1l0.4,0l2.3,0l0.8,0.1l1.2,0.3l0.7,0.2l0.6,0.3l0.4,0.2
	l0.7,0.4l0.3,0.3l2,3.1l0,2l-0.5,1.4l-0.2,0.5l-0.2,0.3l-2.4,3.1l-0.2,0.1l-0.8,0.1h-0.2l-1.8-0.6l-0.3-0.1l-0.4-0.3l-0.2-0.3
	l-0.1-0.3l0.1-0.5l0.4-0.5l0.2-0.3l0.1-0.3l-0.1-0.3l-0.4-0.4l-0.4-0.3l-0.5-0.2l-0.5-0.1l-0.4,0l-0.3,0.1l-0.6,0.3l-0.2,0.2
	l-0.2,0.3l-0.2,0.5l-0.2,0.8l0.1,0.8l-0.2,0.2l-0.3,0.1l-2.6-0.2l-0.3-0.1l-1-0.6l0.3-0.3h0.2l0-0.6l-0.5-1l-0.3,0.1l-2.4,1.3
	l-0.6,0.4l-0.1,0l-0.4-0.1l-0.3-0.1l-0.3-0.2l-0.3-0.3l-0.1-0.3l-0.7-3.4l0.1-0.5l-0.4-3l-0.4,0.1l-1.6,0.1l-0.5-0.7l-0.2-1.1
	l0.3-0.4l0.2-0.1l2.4-0.4L138.6,864.5L138.6,864.5z M43.3,814.4l1.2-0.2l0.2,0.1l1.3,0.9l2,1.4l0.2,0.3l-0.2,0.4l-0.3,0.2l-0.2,0
	l-2-0.1l-4.5-1.2l-0.2-0.8l-0.1-0.4l-1.2-0.6l-0.5-1.1l-2.1-2l-0.3,0.1l-1.7-1.7l-1.1-1.4l-1.5,0.3l-0.8,0.4l-0.9,0.5l-4.2-0.2
	l-0.4-0.3l-0.4-1.8l-1.3-1.7l-0.4,0l-1.1-0.3l-1.5-1.2l-0.2-0.3l0.2-0.5l0.3-1.4l-0.5-0.8l-0.2-0.1l-0.5-0.1l-0.8-0.4l-0.3-0.2
	l-0.9-1.2l0.8-1.2l0.2,0l0.8,0.6l2.6,2.5l1,1.2l0.7,1.6l0.8,0.9l2,0.5l0.2-0.4l0.7-0.2l1.2-0.2l1.9,0.7l2.3,1.4l1.1,1l0.7,0.5
	l1.4,0.7l1.1,0l0-0.6l0.9,0.2l0.8,1l0.1,0.2l0.3,1.3l-0.2,0.4l-0.3,0.4l-0.2,0.4l0.7,1.8l0.2,0.3l0.3,0.2l0.7-1.2l-0.2-0.6l-0.2-0.7
	l-0.2-1l0.2-0.3l0.3,0l0.3,0.1l0.5,0.2l2,2.5l0.1,0.3L43.3,814.4L43.3,814.4z M80.8,836.9l0.4,1.9l1.5,0.3l1.6-0.7l1.2,0.9l0.2,0.4
	L86,842l0.1,2.8l-2.2,3.4l-0.2,0.2l-0.3,0l-0.3-0.3l-0.7-0.9l-1-0.2l-1.7-0.8l-1.7-3.2l-0.1-0.5l0.1-0.5l0.2-0.2l0.6-0.1l0.3-0.2
	l0.1-0.2l-0.7-1.1l-1.5,1.2l-0.7,2l-0.1,0.3l-0.1,0.7l-1.8-0.4l-0.3-0.2l-0.4-1l-0.2-0.6l-0.1-0.6l0.1-0.4l1.1-1.3l-0.5-3.5l0.2-0.7
	l0.4-0.5l0.3-0.2l0.8-0.2l1.8,0l1.7,0.7l1.4,0.8l0.2,0.2L80.8,836.9L80.8,836.9z M94.4,843.5l-0.2-0.1l-1.5-0.6l-0.7-0.3l-0.7-0.4
	l-0.2-0.2l-1.6-1.5l-0.3-0.4l-1.1-2l-0.3-3.1l0-0.4l0-1.7l0.1-0.3l1-0.7l0.9-0.3l0.3,0l1.6,0.5l0.4,0.4l0.2,0.1l0.2,0l0.3-0.2
	L93,832l0-0.4l-0.2-0.4l-0.3-0.4l-0.2-0.2l-0.8-0.4l-0.2-0.3l-0.1-0.4l-0.1-2l0.1-0.4l0.5-0.2l0.3-0.2l0.2-0.2l0.3-0.3l0.4-0.4
	l0.3-0.4l0.1-0.3l0.2-0.5l0.1-0.6l0.1-0.4l0.2-0.3l0.3-0.2l0.8-0.1l0.3,0.3l-0.1,2.2l-0.1,0.3l-0.1,0.3l-0.1,0.4l0,0.6l0,0.4
	l0.1,0.4l0.9,4.2l1,2.7l0.7,1.8l-0.1,0.5l-0.4,0.4l-0.4,0.1l-0.7,0l-0.2,0l-0.3-0.1l-0.3-0.1l-0.5-0.4l-0.6-0.5l-0.5-0.8l-0.2-0.3
	l-1.7-1.7l-0.1,0.3v0.4l0.2,1l0.1,0.3l0.1,0.3l0.4,0.5l0.3,0.3l0.2,0.2l0.4,0.6l0.8,2.5l0.1,0.5l0.3,2.3L94.4,843.5L94.4,843.5z
	 M73.8,834.8l-0.9,0.9l0.2,0.3l0.4,0.4l0.6,2.5l-0.1,0.5l-1,1.6l-0.3,0.4l-0.3,0.1l-0.2,0l-0.7-0.2l-0.3-0.2l-0.2-0.2l-0.3-0.4
	l-1.5-2.4l0-0.5l0.1-0.7l-0.2-0.3l-0.3,0l-0.2,0.4l0,0.4l0.1,0.4l0.6,2.1l0.7,0.8l0.3,0.2l0.4,0.2l1.8,2.2l0,0.5l-0.2,0.4l-1.4,2.3
	l-0.2,0.1l-0.3,0l-1.5-0.4l-0.3-0.6l0.2-1.7l-2.8-2.9l-1.6-1.8l-0.2-0.3L64,839l-0.1-0.3l-0.5-3.2l-0.1-0.7l0.1-0.5l0.8-0.2l0.2,0
	l0.2,0l1.1,0.5l0.3,0.3l0.2,0.6l0.8,0l0.9-2.2l0.3-0.8l0.5-0.3l0.4-0.2l4,1.5l1.2,0.6l-0.1,0.5L73.8,834.8L73.8,834.8z M13,728.3
	l-0.4,0.6l-2.2,3l-0.2,0.3l-0.4,0.2l-1.3-0.1l-0.2-0.1l-0.1-0.3v-0.4l0.2-0.5l0.6-0.4l0.5-0.6l0.8-1.2l-0.3-0.2l-1.2,0.3L8,729.4
	l-1.8,0.8H5.9l-0.2-0.2l0-0.5l0.2-2l0.4-1.6l0.5-1.4l0.1-0.4l0.2-0.3l0.2-0.1l0.3,0l0.3,0.1l1.2,0.5l0.1,0.3l-0.2,0.3L9,725.2
	l-0.5,0.1H7.8l-0.1,0.2l0.3,0.5l0.3,0.2l0.8,0.4l1.4,0.4l1-0.2l-0.1-1.4l-0.2-0.9l-1.2-0.4l-1.4-0.9l-1.4-1.2l-0.3-1l1.5-1.2l0.3,0
	l2.8,0.7l0.2,0.2l2.4,2.9l-0.9,0.9l-0.3,0.3l-0.1,0.3l0.8,0l3-0.7l0.3-0.7l-0.2-0.3l0.8-0.3l0.3,0.3l0.2,0.6l-0.1,0.9l-0.3,0.9
	l-3.4,2l-0.3,0.1L13,728.3L13,728.3z M19,751.3l-3-1.4l-1.4-2.5l-0.1-0.3v-0.5l0.1-0.4l0.5-1.3l0.2-0.2l1,0.1l2.1,0.6l1,0.4l1.4-0.7
	l0.1-2.2l-0.1-0.6l-0.2-0.4l-0.5-0.5l-0.2-0.1l-0.3-0.2l-0.1-0.3l0.1-0.3l0.4-0.2l0.6,0.2L22,741l1.1,0.8l1.4,1.5l0.2,0.4l0.1,0.5
	l0.5,4.6l-0.4,1.6l-0.2,0.2l-0.2-0.1l-0.1-0.6l-0.3-1l-0.5-0.8l-0.3-0.1l-0.2,0.1l-2,1.2l-0.4,1.2l-0.1,0.2l-1.5,0.5L19,751.3
	L19,751.3z M97.5,864.2l0.5,0.1l0.2,0.2l-2.3,1.1l-0.8,0.1l-0.4,0.3l0,0.5l0.1,0.5l-0.2,0.3l-2,0.3l-0.6-0.1l-0.5-0.2l-0.4-0.3
	l-0.2,0.1l-0.2,0.5l1.4,0.6l2.9,0.4l2.3-0.4l0.3,0l0.9,0l0.2,0.1l0.1,0.6l0.3,1.9l-0.5,0.5l-0.5,0l-0.2-0.1l-0.2-0.2l-0.2-0.5
	l-0.5-0.5l-0.4-0.1l-0.2-0.1l-0.6,0.5l-0.1,0.7l0.2,0.3l0.5,0.3l0.4,0.1L97,872l0.1,0.3l-0.2,0.4l-2.7,1.2l-0.3,0l-0.2-0.3l-0.1-0.4
	l-0.1-0.6v-0.8l0.3-0.7l-1-1.2l-1.7,1.4l-0.4-0.1l-3.9-1.5l-1.3-1l-0.1-2.5l0.2-0.3l0.3-0.2l2-0.4l1.5,0.3l0.8,0.2l0.8,0.4l2.2,0.1
	l0.3-0.2l-1-0.4l0.1-0.3l1.8-1l0.2-0.1l1.1-0.1L97.5,864.2L97.5,864.2z M28.2,743.9l-0.5-1.3l-0.2-0.3l-0.4-0.3l-0.8,0.4l-0.1,0.3
	l-1.6-0.6l-1.8-1.4l-0.2-0.2l-0.9-1.9l-0.1-0.4l-0.1-0.6l0.1-0.3L23,736l1.3-1.3l-1.4-0.6l-0.2,0l-0.6,0.2h-0.3l-1.9-1l1.1-1
	l0.2-0.2l0.6-0.4l0.3-0.1l0.2,0l3,2l1.6,3.7l0.7,1.6l1,2.6l0.1,0.6l0,0.7l-0.2,0.9l-0.2,0.1L28.2,743.9L28.2,743.9z M105.5,868.7
	l0.1-0.9l0-0.4l-0.3-0.7l-0.5-0.2l-0.1-0.5l0.4-2l0.2-0.1l1.1-0.4l0.2,0l2-0.3l1,0l5.1,1.1l0.5,0.1l3,1l0.7,0.6l-0.3,0.2l-0.6,0
	l-3.4,0.8l-1.8,0.5l-2.7,0.5l-2,0.3L105.5,868.7L105.5,868.7z M33.4,798.2l-0.2,0l-0.3-0.2l-2.3-2.7l-0.2-0.3l0-0.3l0.4-1.1l0.2-0.2
	l1-1.2l2.9-2.7l1.1-0.7l0.3,0l0.3,0.1l0.2,0.2l0.2,0.3l0.8,1.6l-1,3.7l-1,2.2l-0.1,0.3l-0.3,0.4l-0.3,0.2l-0.3-0.1l-0.2,0l-0.6,0.4
	L33.4,798.2L33.4,798.2z M14.2,761.7l-0.2,0l-0.4-0.3l0.1-0.7l1.3-1l0.9-0.4l0.4-0.2l1.3-1.5l0.2-0.4l-0.2-0.1l-1.9,1.1l-0.4,0.3
	l-0.4-0.1l-0.2-0.3l-0.1-0.4l0.1-0.3l0.2-0.3l2.9-3.1l1.4-0.4l1.8-0.1l0.8,1l0.1,0.3l0.5,1.3l-0.1,2.4l-0.2,0.4l-0.7,0.9l-0.2,0.1
	h-0.4l-0.2-0.2l-0.6-2.1l-0.7,0.4l-0.4,0.9l-0.8,1.7l-0.3,0.1l-0.8,0.2l-0.7,0.1l-1,0.1l-0.3,0.2L14.2,761.7L14.2,761.7z M8.1,742.2
	l-1.7-0.5L6,741.6l-0.2-0.2l-1-2.9l0.2-0.4l0.8-0.8l0.6-0.4l0.3,0l0.3,0.1l0.5,0.3l0.1-0.8l-0.6-1.3l-0.5-0.4l-0.6-0.4l0-0.4
	l0.9-0.8l0.4,0l3.7,0.8l1.6,0.1l0.2,0.2l-0.1,0.4l-1.8,2.4l-0.3,0.1l-0.2,0l-0.3-0.1l-0.3-0.1L9,736.4l0,0.8l0.1,1.8l0.1,2.1
	L8.9,742l-0.3,0.2l-0.3,0.1L8.1,742.2L8.1,742.2z M10.8,717.3l-0.3-0.5l-1-1.3L9,715.3l0.2,0.8l0.1,0.5l0,0.3l-0.2,0.1l-0.4-0.2
	l-0.6-0.6l-0.3-0.4L7.2,715l0-0.3l0.1-0.3l-1-0.8l-2,1.9l-0.4-0.1l-0.5-1.1l-0.1-0.3l-0.2-3.4l0.7-1l3.2-0.3l0.2,0.1l0.2,0.2
	l0.3,0.3l0.7,0.9l2,4.1l0.1,0.3l0.4,2L10.8,717.3L10.8,717.3z M14.5,780.3l-0.3-0.6l-1.3-3.7l1.6-4.2l0.3-0.4l0.5,0.6l0.1,0.3
	l-0.2,0.4l0,0.3l0.4,0.1l0.6-0.1l0.4-0.1l0.4-0.5l-0.5-3.5l-0.5-1.4l-0.5-0.2l-0.3-0.2l0-0.3l0.2-0.3l0.3-0.3L16,766l0.4-0.1
	l1.1,0.4l0.3,0.4l0.1,0.3l0.3,2.6l0.1,0.9l-0.3,1.2l-0.9,3.5l-0.9,3l-0.9,1.6l-0.3,0.3l-0.2,0.2L14.5,780.3z M9.4,694.6l-1-3.1
	l-0.2-0.4L6.4,692l-0.6,1.1l-0.2,0.2l-0.3,0.2l-0.4,0l-2.5-2l-0.1-0.2l-0.1-0.3l-0.1-0.5v-0.3l0-0.4l0.1-0.3l0.3-0.9l0.2-0.3
	l1.4-0.5l3.2,0.2l0.3,0.1l0.7,0.3l0.2,0.2l0.4,0.5l1.4,3.9v0.3l-0.7,0.7l-0.2,0.2L9.4,694.6L9.4,694.6z M14.9,699.9l-1.7-2l-2.7-0.9
	l-0.8-0.6l0-0.5l0.2-0.4l0.5-0.9l0.2-0.3l1.2-1.5l2.6,0.2l0.5,0.4l1,1.1l0.1,1l0,0.4l-0.6,4.5l-0.3-0.2L14.9,699.9L14.9,699.9z
	 M8.4,766.3l-0.1-0.4l0.1-2.2l0.7-0.8l0.8-1.2l0.2-1.4l0.1-2l0-0.5l0-0.4l0.1-0.3l0.1-0.3l0.8-0.8l0.3-0.2l0.2,0l2.3,2l0.2,0.9
	l-0.1,0.8l-0.1,0.3l-0.3,0.2h-0.2l-0.3-0.2l-0.3-0.1l-0.2,0.1l-1.1,2.5l0.1,0.5l0,0.5l0,0.5l-0.1,0.4l-0.2,0.5l-2.4,1.6l-0.2,0.1
	L8.4,766.3z M29.4,788.4l-0.8-0.6l-0.7-1.3l-0.1-2.3l0.1-0.3l0.3-0.2l0.2-0.1l0.4,0.1l0.4,0.2l0.2,0.2l0.5,0.3l0.2-0.1l-0.7-1.6
	l-0.2-0.2l-0.5-0.4l-1.6-0.5l-1,0.2l-0.3,0.1l-0.4,0l-0.4-0.2l-0.5-0.4l0-0.4l1.2-1.2l0.3-0.2l0.4-0.1l0.2,0l0.3,0.2l0.2,0.2
	l1.4,1.2l1.2,1.2l0.7,0.9l2.7,3.4l0,0.4l-0.8,0.6l-2.3,1.2l-0.6,0L29.4,788.4L29.4,788.4z M4.7,699.8l-0.2,0l-2-1.1l-0.3-0.2
	l-0.1-0.3l1-2l1-0.7l0.3-0.1l0.3,0.2l0.9-0.9l0.5-1.4l0.8-1.1l0.3-0.3l0.3-0.1l0.2,0.1l0.3,0.6l0.7,1.9l0.1,0.4l-0.4,0.7l-0.3,0.5
	l-0.2,0.2l-2.6,2.8L4.7,699.8L4.7,699.8z M19.4,745l-1.4-0.1l-0.7-0.2l-1.9-0.7l-0.2-0.4l-0.5-2l0.1-1l0.1-0.3l1.1-1.4l1.3-0.4
	l0.3,0.1l1.1,1.1L20,743l0,0.3l-0.2,1.1l-0.3,0.6L19.4,745L19.4,745z M29,775.5l-1.2-0.2l-2.6-1.6l-1-1.2l-1.4-4l2.3,0.8l3.6,3
	l1.5,1l0,0.3l-0.8,1.6l-0.2,0.2L29,775.5z M84.8,866l-0.3,0l-1.3-0.6l-1-0.9l-2.1,1.4l-0.3,0.1l-1.2-0.3l-0.8-1.9l0.9-1.8l0.9,0.1
	l2.8,0.6l1.2,0.4l0.5,0.4l0.6,0.3l0.4-0.1l0.4-0.2l0.3-0.4l0.2,0l0.9,0.7l0.6,1.5l-0.4,0.2l-0.6,0L84.8,866L84.8,866z M36.9,783.5
	l-0.1-0.3l-0.5-0.9l-0.8-1.3l-1.2-1.3l-0.3-0.3l-1.1-0.8l-2.3-1.4l-0.3-0.2l-0.3-0.3l0-1l0.3-1.2l0.6-0.5l0.2,0l0.3,0.3l3,2.8
	l0.9,0.9l0.6,0.7l0.2,0.3l0.9,2.1l0.4,1.6l0,0.5l-0.1,0.5l-0.3,0L36.9,783.5L36.9,783.5z M31.6,771.1l-0.4-0.1l-0.3-0.1l-2.5-1.9
	l-0.4-0.3l-0.3-0.4l0-0.5l0.1-0.3l0.8-0.2l0.8,0l0.9-1.6l-0.3-1.7l0.1-0.3l0.2-0.1l0.3,0l0.3,0.3l2.4,6.1l0,0.5l-0.3,0.3l-0.2,0.2
	l-0.5,0.2l-0.4,0.1l-0.2,0L31.6,771.1z M151.7,892.3l0-1l-0.2-0.2l-1-0.3l-1.1,0.3l-1.7-0.6l-0.1-0.8l0.2-1.5l2-2.3l1-0.5l0.3,0
	l1.5,4.6l0.3,1.3l-0.1,0.4l-0.4,0.4l-0.4,0.2L151.7,892.3L151.7,892.3z M16.3,781l-0.1,0l-0.4-0.7l1.8-6.3l0.1-0.4l0.4-0.9l0.2-0.4
	l0.2-0.3l0.2,0l2.3,0.3l-0.1,0.4l-3,6.5l-0.2,0.2l-1.5,1.4L16.3,781L16.3,781z M62.6,838.9l1,0.9l0.5,1.1l-0.8,1.7l-0.9,1.6
	l-0.4,0.1l-1.9,0.1l-0.7-0.1l-0.4-0.3l-0.2-0.2l-0.2-1.2l2.2-3.4l0.4-0.4l0.6-0.3l0.5,0l0.2,0.1L62.6,838.9L62.6,838.9z M34.8,788.4
	l-0.7-0.9l-0.6-1.7l-1.5-1.3l-1.4-1.8l-0.1-0.3l-0.2-0.6l0.3-0.4l0.6-0.3l0.2,0l0.8,0.6l0.7,1.2l2.5,1.4l0.4,0.4L36,785l0.1,0.3
	l0.5,2l-0.1,0.5l-0.2,0.3l-0.8,0.4l-0.4,0L34.8,788.4L34.8,788.4z M42.2,818.2l0.4,0.2l0.2,0.4l-1.3,1.7l1.1,1.6l0.1,0.5l-1.7,0.9
	l-0.4-0.1l-2.4-1.4l-2.2-1.7l-0.3-0.4l-0.3-0.6l0.1-0.3l0.3,0l0.6,0.7l0.6,0.5l0.4,0.3l0.3,0.1l0.2,0l0.7,0.1l1.5-0.6l0-0.3
	l-0.2-0.2l-0.6-0.3l0.3-1.2l2.1,0l0.2,0L42.2,818.2L42.2,818.2z M10.3,692.2l-0.4-0.8l-1.5-4.5l0.6,0l0.9,0.3l0.3,0.1l0.5,0.3
	l0.6,0.4l0.6,0.5l0.2,0.2l0.2,0.2l0.3,0.5l0.1,0.3l0.3,1.4l-0.1,0.3l-0.2,0.2l-1.8,0.8l-0.3,0L10.3,692.2L10.3,692.2z M24.3,754
	l-2.4-1.2l-0.3-0.2l-0.5-1.6l0.1-0.8l1.9-1.4l0.3,0l0.2,0.1l0.2,0.4l1.1,2.3l0.1,0.3l0.1,0.3v0.8l-0.4,1l-0.2,0.1L24.3,754L24.3,754
	z M26.9,754.3l-0.7-3.8l-0.3-1.6l-0.2-2.7l0.1-0.3l0.5,0l0.4,0.8l1.1,3.5l0.6,2.6l0.1,1l-1,1.3l-0.3,0.1l-0.3,0l-0.1-0.3l0-0.5
	L26.9,754.3L26.9,754.3z M98.8,844.9h-0.2l-0.4-0.1l-2.4-1l-0.3-0.2l-0.7-1.1l-0.1-0.3l0-0.4l0.1-0.5l0.2-0.4l0.2-0.1l0.4,0.1
	l3.2,1.3l1,0.7l0.3,0.5l-0.1,0.5l-0.2,0.4l-0.5,0.5l-0.2,0.1L98.8,844.9L98.8,844.9z M45,840.6l-1.1-0.6l-2.2-1l-0.2-0.3l1.4-1.3
	l0.7,0l0.6,0l1.2,0.2l0.2,0.1l1,0.6l0.1,0.3L47,840l-0.3,0.3l-0.3,0.1L45,840.6L45,840.6z M160.1,874.7l0.4,0.4l0.4,1.6l-0.3,0.7
	l-0.6,0.5l-0.3,0.1l-1.9-0.1l-0.9-0.1l-0.2-0.2l-0.2-1.6l0.5-0.8l0.4-0.2l1.4-0.6l0.5-0.1l0.3,0.1l0.3,0.1L160.1,874.7L160.1,874.7z
	 M47.9,778.4l-0.1-0.6l0.1-0.5l0.1-0.4l0.1-0.3l0.8-1.6l0.2-0.1l1.4-0.7l1.4-0.5l-0.1,0.9l-1.7,3.7l-0.5,0.2l-1,0.4l-0.4,0.1
	l-0.2-0.1L47.9,778.4L47.9,778.4z M30.6,758.9l-0.2-0.2l-0.2-0.3l-0.3-1.9l0-0.3l0.2-1.4l0.1-0.3l0.2-0.1l0.3,0l1.3,0.2l0.5,0.3
	l0.1,0.4l0.2,1.5l-0.1,0.7l-1.7,1.5L30.6,758.9L30.6,758.9z M11.7,687.8l-0.1-0.1l-1.9-1.3l-0.1-0.4l1.1-1.4l1.9-2.2l0.2-0.1
	l0.1,0.3L13,683l0.1,0.5l0,0.4l0,0.4l-0.5,2l-0.4,1.2l-0.2,0.3L11.7,687.8L11.7,687.8z M18.3,733.9l-0.4-0.1l-0.1-0.2l0.6-2.7l1-0.8
	l0.2-0.1l0.3,0l1.1,0.1l1.1,0.4l0.1,0.3l-0.3,0.4l-1.5,1.3l-1.5,1.2l-0.3,0.1L18.3,733.9z M24.3,709.2l-0.2-1.1l-0.2-2.5l0.1-1.1
	l0.1-0.4l0.2-0.1l1.1,0.9l0.5,0.4l0.2,0.3l0.8,1.7l-0.1,0.3l-2.2,1.9L24.3,709.2L24.3,709.2z M12,774l-0.2-0.2l-0.1-0.3l0.5-2.7
	l0.3-1.2l0.1-0.3L13,769l0.4-0.3l0.4-0.1l0.5,0.1l0.4,0.4l0.1,0.5l-0.2,1.1l-0.3,1.2l-0.3,0.9l-0.2,0.3l-0.2,0.2l-0.8,0.7l-0.4,0.2
	L12,774L12,774z M29.5,761l-1.1-0.6l-0.7-0.5l-0.2-0.3l-0.3-1.5l-0.1-0.9l0.1-0.5l1.4-0.5l0.2,0.2l0.9,2.6l0.1,0.3l0,1.5l-0.1,0.3
	l-0.2,0L29.5,761L29.5,761z M165.3,876.3l-0.8-0.2l-0.2-0.3l-0.1-0.5l0-0.3l0.3-1.3l1.6-1.1l0.4,0l0.3,0l1.2,0.6l0.2,0.6l-1.6,2.1
	l-1.1,0.5L165.3,876.3z M95.5,862.4l0.4,0.1l0.4,0.2l0.4,0.6l-0.2,0.3l-0.2,0.1l-3.3,0.7h-1.3l-0.9-0.6l-0.3-0.4l0.3-0.3l0.6-0.4
	l1.9-0.6l1.3-0.2L95.5,862.4L95.5,862.4L95.5,862.4z M12.8,742.4l-0.2-0.3l-0.1-0.3l-0.4-1.3l0-0.5l0.6-1.7l0.2-0.1l1.4,0.1l0.2,0.2
	l0.1,0.4l-0.1,3.7l-0.2,0.2l-0.6-0.1L12.8,742.4L12.8,742.4z M59.6,849.7l-0.2-0.1l-0.9-1.2l-0.3-1.3l2-1.2l0.4,0l1.9,0.8l0.1,0.3
	l-0.2,0.6l-1.3,0.6l-0.2,0L59.6,849.7L59.6,849.7z M18.9,778.8l0.2-0.6l0.1-0.3l0.2-0.3l2.8-2.8l0.6,0.4l0.4,0.5l0,0.9L23,777
	l-1,0.7l-2.1,1.3l-0.8,0.4l-0.2-0.2L18.9,778.8L18.9,778.8z M97.5,841.3l-0.2,0l-1.6-1.2l-0.5-0.5l-0.2-0.4l-0.1-0.4l0.1-0.3
	l0.2-0.1l3-0.6l0.2,0.3l0.2,0.6l0.1,0.6l-0.4,1.2L98,841l-0.2,0.2L97.5,841.3L97.5,841.3z M34.8,824.1l-0.2-0.1l-0.4-1.5l0.2-2.4
	l0.2-0.3l0.2,0l2.3,1.6l0.4,0.3l0,0.4l-0.2,0.3l-1.8,1.2l-0.3,0.1L35,824L34.8,824.1L34.8,824.1z M42.5,805L42,805l-0.2,0l-0.6-0.6
	l-0.1-0.3l0.2-0.4l0.3,0l0.2-0.1l-0.6-0.4l-0.7-0.3l-1.5-0.1l-0.3,0.1l-1.6,0.3l-0.4,0.2l-0.2-0.2l0.9-0.9l2.2-0.5l2.6,0.8l0.2,0.2
	l0.7,0.9l-0.2,1.3L42.5,805L42.5,805z M35.6,771.7h-0.2l-0.4-0.1l-0.3-0.2l-0.1-0.3l-1.5-3.2l0-0.6l0.1-0.3l0.4,0l1.2,0.6l0.9,1.2
	l0.5,1.2l0,0.4L35.6,771.7L35.6,771.7z M146.8,895.9l-0.6-1.6l-0.2-0.1l-1,0l-2.1,0.6l-0.2-0.1l-0.2-0.3l0-0.5l0.3-0.7l0.6-0.2
	l0.2,0l0.5,0.2l0.4,0.1l0.7,0.1l1.9,0.1l0.7-0.5l0.2-0.1l0.8,0.2l0.3,0.4l-0.5,1.5l-0.2,0.2l-0.8-0.3l-0.2,0L146.8,895.9
	L146.8,895.9z M157.5,867.3l0.9,0.2l2,0.7l0.2,0.3l0.7,2.4l-0.3,0.1l-0.4-0.2l-4-2.8l-0.2-0.4l0.1-0.3l0.2-0.2l0.4-0.1l0.3,0.1
	L157.5,867.3z M18.5,786.2l-1.1-1.1l-0.2-1.5l3.1-0.8l0.4,0.1l0.1,0.3l-1.3,2.5L19,786l-0.4,0.1L18.5,786.2L18.5,786.2z M35.8,758.8
	l-1.3-0.3l-0.2-0.1l-0.4-0.4l-0.4-1.1l0.1-0.3L34,756l0.7-0.7l0.3-0.1l0.3,0.1l0.3,0.2l0.2,0.3l0.2,0.2l0.1,0.3l0.1,0.5l0,0.6
	l-0.3,1.1l-0.1,0.3L35.8,758.8L35.8,758.8z M13.9,685.4l-0.4,0l-0.2-0.2l0-0.4l0.6-1.6l0.3-0.4l1.5,0l0.9,0.1l0.5,0.3l-1.6,1.6
	l-0.3,0.3l-0.2,0.1l-0.5,0.2L13.9,685.4L13.9,685.4z M18.1,782.4l-0.3-0.1l-0.2-0.2l-0.1-0.3l0-0.6l0.2-0.6l3.2-1.9l0.2,0.6
	l-1.5,2.6l-1.1,0.5l-0.3,0.1L18.1,782.4L18.1,782.4z M144.7,887.1l-0.2-0.2l0.6-3.3l0.3-0.4l0.4-0.3l0.3,0l0.3,0.3l0.2,0.2l0.3,0.4
	l0.2,0.3l0.2,0.5l-0.1,1.1l-0.9,0.7l-0.4,0.3l-0.5,0.2L144.7,887.1L144.7,887.1z M100.9,867.7l-0.2,0l-0.3-0.2l-0.3-0.3v-0.3
	l0.2-0.3l0.2-0.2l2.6-1.4l0.3-0.1l0.3,0l0.2,0.2l0.2,0.3l0,0.5l-0.6,0.9l-1.7,0.7L100.9,867.7L100.9,867.7z M30.9,813.9l-0.1,0.4
	l-0.8,1.4l-0.5,0.3l-1.1,0.4l-0.3,0l-0.2-0.1l-0.3-0.4l-0.1-0.3l1-1l0.8-0.7l0.8-0.6h0.2l0.3,0.2l0.4,0.4L30.9,813.9z M153.3,895.7
	l-1.8-1l-1.1-0.9l0.1-0.4l0.2-0.1l0.3-0.1l1,0.1l1.3,0.4l0.6,0.9l0.1,1.1L153.3,895.7L153.3,895.7z M34.5,774.1l-1.4-0.3l-0.2-0.2
	l-0.2-1.4l0.5-1.1l0.2-0.2l0.2,0l0.2,0.2l0.2,0.2l0.3,0.4l0.8,1.3l-0.1,0.4l-0.4,0.4L34.5,774.1L34.5,774.1z"/>
<path id="CL-TA" class="st0" d="M98.8,34.9l2.9-0.1l2.8-1.8l2.8-2.1h4.9L115,33l2.8-0.4l0.4-2.1l1.8-1.8h2.7l-0.2,0.5l1.2,2.1
	l2.1,1.5l0.8,0.7l1.5,1.7l0.3,0.3l0.6,0.3l0.5,0.1l0.6,0.3l1.1,0.9l0.9,1.2l-1.9,2l-0.4,0.5l-0.5,0.8l-1.5,1.8l-0.1,0.7l1.1,0.8
	l1.1,0.9l0.8,1.6l-1,2.6l-0.6,0l-0.7,0.1l-2.3,0.6l-0.1,0.5l0.3,0.4l0.8,1.9l0.3,1.9l-0.6,0.3l-0.4,0.4l0,1l0.2,0.5l0.3,0.4l0.6,0.6
	l0.5,0.4l0.6,0.3l0.5,0.2l0.5,0.2l0.4,0.2l1,0.7l0.5,0.5l-0.1,0.4l-0.7,0.4l-0.4,0.3l-0.6,0.9l0,2.6l0.1,0.4l0,0.1l0,0l-1.4-0.1
	l-3.3-0.4l-1.6,0.2l-0.4,0.1l-0.3,0.2l-0.2,0.5l0.3,0.4l0.5,0.3l1.4,0.6h0.5l0.5,0l1-0.2l0.5,0.1l0.2,0.5l-0.1,0.8l-0.2,0.5
	l-0.7,1.4l-0.3,0.5l-0.2,0.5l-0.1,0.5V73l-1.7,0.7l-2.2,0.2l-4.8,1.5l-5.8,1.4l-1.4,0.3l-1.3-0.5l-1.1-0.2l-2-0.2l-0.5,0l-2,0.1
	l-0.3,0.1l0,0l-0.6-1.1l-0.1-0.6l0.4-0.6l-1-3.8l-0.4-1l-0.4-0.8l0.3-1l0.3-0.6l-0.1-1l-0.3-0.5l-0.3-0.2l-0.7-0.6l0.7-7.8l0.5-1.7
	l0.1-0.5l-0.5-1.2l0.2-1.4l0.2-0.6l0.2-0.6l0-1.5l0-0.5l-0.3-1.3l-0.6-5l-0.5-2.9l-0.6-2.3l-0.8-1.5L98.8,34.9z"/>
<path id="CL-AN" class="st0" d="M130.7,67l0.5,0.1l0.5-0.1l0.5,0l3.5,5.6l0.7,1.2l0.1,6l0.3,0.4l0.6,0.8l0.3,0.6l0.3,0.9l0.3,1.4
	l0.1,0.4l0,0.7l0,0.6l0,0.9l1.6,1.7l0.4,0.3l0.5,0.9l0.4,2.6v0.7l-0.2,0.5l0.8,2.4l0.7,2.5l-0.6,3.1l0.1,2.2l1.5,1l3.9,0.5l4.4-0.9
	l2.7-0.6l1.4,1.5l1.9,2l-0.8,2.4l-0.8,2.3l-0.8,2.3l-0.2,0.7l-3.3,12.3l-5.5,2.5l-4.7,2.1l-5.2,2.3l-1.1,0.5l-0.4,1l-0.7,1l-0.8-0.1
	l-0.4,0.3l-1.3,2l-0.8,1.3l-0.6,1.2l-0.5,1l-0.1,0.6l0.4,1.1l0.9,0.5l2.6,4.5l-1.2,0.6l-1.2,0.2l-0.2,0.2l-0.3,0.5l-0.4,1.4l0,0
	l-1,0l-0.7,0.2l-0.6,0.4l-0.7,0.6l-0.6,0.6l-0.4,0.3l-0.4,0.1l-0.9-0.1l-0.7-0.1l-0.6,0.1l-0.6,0.3l-0.5,0.3l-0.4,0.3l-0.9,0.7
	l-0.4,1l-0.2,1.4l-0.4,0.7l-0.4,0l0.2,3.5h-5.3l-0.7,2.1l-1.8,0.4l-1.8,2.1l-2.8-2.1l-1.4-1.9l-0.2,0l-1.2-0.1l-0.5-0.1l-0.7-0.1
	l-0.6,0.3l-0.3,0.2l-0.7,0.4l-0.4,0.4l-2.3,1.4l-1.3,0.1l-1.7,0.3l-0.8,0.2l-0.5,0.1l-0.5,0.2l-0.3,0.2l-0.3,0.2l-1,0.7l-0.9,1.2
	l0,0l0.5-0.9l0.1-0.4l-0.1-0.6l-0.4-1.1l-0.5-0.5l-0.4-0.4l-0.6-1.5l0.6-2.1l0.3-0.9l0.9-1.9l1.1-1.4l0.7-0.5l1.6-2.1L96,151l0-1.1
	l-0.4-1.1l-0.8-1.2l0.1-2.6l-0.6-1.2l-0.3-1.1l-0.7-2.5l0.3-3.1L94,134l0.2-0.9l-0.2-0.4l0.3-1.6l0.3-1l0.2-0.4l0.1-1.4l-0.1-1.2
	l-0.3-0.7l0-0.7l0.2-2.4l0.2-1.3l0.5-0.7l0.5-0.4l0.3-0.5l0.4-0.9l0.2-0.5l0.1-0.5l0-0.8l-0.2-0.6l-0.2-0.6l-0.2-0.3l-0.6-0.4
	l-0.5-0.3l-0.4,0.2l-0.5,1.1l-1.5-0.3l0.4-2.4l0.1-2.8l0.4-3.2l0.6-0.7l0.6-0.3l0.1,0.9l0.4,0.5l1.1-0.2l0.6-0.3l0.4-0.3l0.3-0.4
	l0.2-0.3l0.5-1.2l0.4-1.1l-0.1-0.6l-0.2-0.4l-0.2-0.9l0.5-2.8l0.5-3.8l0.3-2.7l0.4-2.9l0.3-1.2l0.4-1.4l0.7-4.9l-0.1-0.6l0-1.3
	l0.3-1l0.8-0.7l0.1-1l0.6-2l0,0l0.3-0.1l2-0.1l0.5,0l2,0.2l1.1,0.2l1.3,0.5l1.4-0.3l5.8-1.4l4.8-1.5l2.2-0.2l1.7-0.7v-0.6l0.1-0.5
	l0.2-0.5l0.3-0.5l0.7-1.4l0.2-0.5l0.1-0.8l-0.2-0.5l-0.5-0.1l-1,0.2l-0.5,0h-0.5l-1.4-0.6l-0.5-0.3l-0.3-0.4l0.2-0.5l0.3-0.2
	l0.4-0.1l1.6-0.2l3.3,0.4l1.4,0.1l0,0l0.1,0.2l0.4,0.4L130.7,67z"/>
<path id="CL-AT" class="st0" d="M129.5,152.7l-0.4,1.5l-0.1,0.4l-0.1,0.6l0.1,0.5l0.8,2.4l0.9,2l0.1,0.5l0.7,3.2l1,5.1l-0.4,0.6
	l-1.1,1l-0.7,0.5l-0.5,0.4l-0.3,0.4l-0.2,0.9l-0.1,0.6l-0.1,1.1v0.4l0,1l0.1,0.4l0.2,0.4l0.5,0.8l1.9,2.2l2.5,3.9l0.1,0.4l-0.6,2.2
	l-0.6,0.3l-0.7,0.4l-0.3,0.2l-4.2,1.4l-0.9-0.6l-0.8-0.1l-0.8,0.1l-0.5,0.3l-0.7,1.2l-0.4,0.7l-0.2,0.6l0.2,0.8l-0.6,1.7l-2.5,4.8
	l-0.5,0.6l-0.7,2.1l-0.1,0.8l-0.6,2.6l-0.2,0.5l-0.2,0.5l-0.3,0.4l-0.5,0.1l-0.7,0.1l-0.7,0.3L116,207l-0.2,0.9l-0.2,0.5l-0.9,1.1
	l-2.4,2.7l-1.3,1.1l-0.9,0.7l-0.1,2.9l-0.1,0.7l-0.6,0.3l-0.8,1.6l0,1l0.1,0.5l0.2,0.5l0.1,0.7l-0.6,1.8l-0.6,2.7l0,1.1l-0.1,0.5
	l-0.2,0.4l-0.6,0.4l-1.1,0.1l-1.1,1.3l-1.2,1.8l-0.1,1.3l0.1,0.5l0.5,1l0.7,2.3l0.1,0.2l0,0l-2.2-0.2l-3.2-1.4l-1.4-0.7l-2.5-0.7
	l0.1-0.6l0-0.8l-0.3-0.8l-0.2-0.3l-2.4-2.8l-0.4-0.4l-0.5-0.5l-0.6-0.4l-0.5-0.3l-0.6-0.2l-1.4,1.1l-0.7,1.4l-1.4,3.5l-2.8,0.4
	l-1.4-2.1l-1.2-2.6l-0.3,0.2l-0.4,0.2l-2.2,0.5l-0.7,0.1l-0.7,0l0,0l0.3-1.6l-0.5-2.7l-0.1-1.6l0.2-0.5l0.6-0.7l1.6-1.6l1.5-1.8
	l0.2-1.1l0.1-1.2l0.4-0.9l0.5-0.8l1.2-2.6l0.1-2.3l0-1.6l0.3-3.9l0.6-2.4l0.4-1.2l0.7-1.3l0.7-0.9l0.8-0.4l0.9-0.7l0.4-2.8l-0.3-1.1
	l-0.5-2l-0.5-3.1l0.2-0.5l0.2-0.5l0.4-0.3l1.1-0.2l0.9-1.2l0.5-1l-0.3-1.2l-0.3-0.7L89,183l2.2-5.4l0.2-0.7l0.2-2.5l0.8-2.7l-0.5-2
	V169l0.2-1.6l0,0l0.9-1.2l1-0.7l0.3-0.2l0.3-0.2l0.5-0.2l0.5-0.1l0.8-0.2l1.7-0.3l1.3-0.1l2.3-1.4l0.4-0.4l0.7-0.4l0.3-0.2l0.6-0.3
	l0.7,0.1l0.5,0.1l1.2,0.1l0.2,0l1.4,1.9l2.8,2.1l1.8-2.1l1.8-0.4l0.7-2.1h5.3l-0.2-3.5l0.4,0l0.4-0.7l0.2-1.4l0.4-1l0.9-0.7l0.4-0.3
	l0.5-0.3l0.6-0.3l0.6-0.1l0.7,0.1l0.9,0.1l0.4-0.1l0.4-0.3l0.6-0.6l0.7-0.6l0.6-0.4l0.7-0.2l1,0l0,0l-0.1,0.1l-0.4,0.8L129.5,152.7z
	"/>
<path id="CL-CO" class="st0" d="M77,229.9l0.7,0l0.7-0.1l2.2-0.5l0.4-0.2l0.3-0.2l1.2,2.6l1.4,2.1l2.8-0.4l1.4-3.5l0.7-1.4l1.4-1.1
	l0.6,0.2l0.5,0.3l0.6,0.4l0.5,0.5l0.4,0.4l2.4,2.8l0.2,0.3l0.3,0.8l0,0.8l-0.1,0.6l2.5,0.7l1.4,0.7l3.2,1.4l2.2,0.2l0,0l0,0.2
	l0.1,0.9l-0.1,0.6l-0.1,0.6l0.1,0.5l0.2,0.3l0.6,0.4l0.1,0.2l0.2,1.6l-0.1,2.5l-0.2,1.1l-0.1,0.5l1.1,2.1l0.4,0.3l0.2,0.5l-0.1,1
	l-1.2,2.8l-0.7,1l-1.1,0.5l-0.6,0.1l-0.4-0.1l-1.5,0.9l-1.4,2.5l-0.7,1.6l-0.3,0.8l-0.8,3l-0.2,1.4l-0.1,0.8l0.1,0.5l0.7,0.8
	l-0.1,0.7l-1.2,1.3l-1.2,0.4l-0.4-0.4l-1.3,1.4l-0.2,0.5l-0.5,2.9l-0.1,3.1l-0.2,1.3l-0.1,0.7l2.3,5.6l0.2,0.3l0.3,0.4l0.3,0.2
	l0.7,0.2l1.2-0.1l0.4,0.2l0.8,1l0.1,0.6l-0.6,1.6l-0.8,0.1l-0.8,0.8l0.6,3l-0.1,0.8l0,0l-1.7,0.2l-0.5-0.3l-0.2-0.5l-0.3-1l-0.5-0.4
	l-0.5-0.2l-0.4,0l-0.5,0l-0.8-0.1l-0.8-0.6l0-0.5l-0.1-0.7l-1.2-0.8l-5.5,0.2l-0.6,0.9l-0.9,1l-0.4,0.3l-3.7,0.9l-0.8,0l0,0
	l-0.5-0.2l-0.8-0.4l0,0l-0.5,0l-0.4,0.3l-0.4,0.4l0,0l0.1-2l0.2-1l0.1-0.5l0.2-0.8l0-1.8l-0.1-2.6l-0.5-1.2l-0.4-2.1l0-1.3l-0.1-0.6
	l-0.9-4.4l-0.7-2.8l-0.1-0.4v-0.7l0.2-1.1l0.1-1.9l-0.2-0.7l-0.3-0.5l-0.1-0.5l-0.4-3l0-2.2l0.1-2l0.1-1.1l0.3-3.4l0.6-1.4l0.5-0.2
	l0.2,0.3l0.6,0.2l0.4,0l0.6-0.3l1.9-1.9l0.4-0.6l0.8-4.2l0.9-0.9l0-1.6l-0.5-0.6l-0.3-1.2l0.1-4l0.3-1.6l0.2-0.7l0-0.5l-0.6-1.9
	l-0.3-0.4l-0.4-0.4l-1-0.7l-0.4-0.3l-0.4-0.3l-0.2-0.5L77,229.9z"/>
<path id="CL-RM" class="st0" d="M103,337.3l0-0.5l-0.1-0.4l-0.5-0.3l-0.9-0.3l-0.6-0.6l-0.1-0.4l0.1-1.4l-0.2-0.9l-0.3-0.2l-0.5,0
	l-0.5,0.4l-0.4,0.1l-1.3-0.4l0.2-1.1l-0.7-2.3l-0.4-0.4l-0.6-0.2h-0.6l-2.1,0.8l-0.7,0.4l-1.3,0.1l-0.5-0.2l-1.5,0.9L87,333
	l-0.1,0.5l0.1,0.9l-1.5,0.3l-1.7,0.1l-0.1,0l-1.5-2.1l-2.3-1l-1.1-2.1l-2.9,0.2l-1.8-0.7l0,0l1-0.6l0,0l0.6-2l0.4,0l1,0.1l0.9,0.3
	l0.6,0l0.9-0.9l0.8-3l-0.7-1.6l-0.3-1.5l0-0.4l0.5-0.3l1.3-1.3l0.6-0.7l0.2-0.5l0-1.5l0.2-0.5l1.1-0.2l1.1,0l1.3-0.8l-0.1-2.7
	l-0.2-1l0.2-0.8l0.4-0.2l2.1-0.8h2.5l1.7,0.4l0.9,0.3l0.7,0.7l0.2,0.8l0.6,0.9l0.4,0l1.2-1l0.4,0.1l1.3,1.4l1.8,0.8l1.5-1.3l0.9-0.5
	l0,0l0.3,0.5l-0.1,1l-0.2,0.6l0.1,0.6l1.7,2.6l0.4-0.1l0.4-0.7l0.5-0.5l0.4-0.1l0.5,0.2l1.3,0.7l0.5,2.3l-0.2,0.5l-0.5,0.5l-1.1,2.5
	l-0.6,4.8l0,1l0.4,1.4l0.6,4.4l0.6,3l-1.3,0.9L105,337l-0.4-0.1l-0.5,0l-0.8,0.2L103,337.3z"/>
<path id="CL-VS" class="st0" d="M78.8,292.2l0.8,0l3.7-0.9l0.4-0.3l0.9-1l0.6-0.9l5.5-0.2l1.2,0.8l0.1,0.7l0,0.5l0.8,0.6l0.8,0.1
	l0.5,0l0.4,0L95,292l0.5,0.4l0.3,1l0.2,0.5l0.5,0.3l1.7-0.2l0,0l0.1,0.4l1.2,0.5l0.2,0.7l1.4,2.8l0.1,0.6l-0.1,0.8l0.7,0.8l1.1,1.1
	l1.6,2.1l0.2,1.8L104,307l-0.5,1.6l-0.9,1.2l-0.5,1l0,0l-0.9,0.5l-1.5,1.3l-1.8-0.8l-1.3-1.4l-0.4-0.1l-1.2,1l-0.4,0l-0.6-0.9
	l-0.2-0.8l-0.7-0.7l-0.9-0.3l-1.7-0.4h-2.5l-2.1,0.8l-0.4,0.2l-0.2,0.8l0.2,1l0.1,2.7l-1.3,0.8l-1.1,0l-1.1,0.2l-0.2,0.5l0,1.5
	l-0.2,0.5l-0.5,0.7l-1.3,1.3l-0.5,0.3l0,0.4l0.3,1.5l0.7,1.7l-0.8,2.9l-0.9,0.9l-0.6,0l-0.9-0.3l-1,0l-0.4,0l-0.6,2l0,0l-1.7,1.1
	l0,0l-0.6,0.8l-0.6-0.1l-0.7-0.2l-0.5-0.4l-0.8,0l0,0l0.5-2l0.6-1.5l0.5-0.2l0.6-0.1l0.5-0.3l0.6-0.6l0.3-0.8l0.1-0.4l0.1-0.7
	l0.2-1.6l-1-3.9l-0.2-2.5l-0.9-3.2l0.2-0.4l0.9,0.1l2.3-1.7l0.8-2.3l0.4-2.9l0.7-1.5l0.2-0.6l0.1-0.7l0-3l0.6-2.1l-1.1-2l-0.7-1.1
	l-0.5-1.3l0,0l0.4-0.4l0.4-0.3l0.5,0l0,0l0.8,0.4L78.8,292.2L78.8,292.2z"/>
<path id="CL-AR" class="st0" d="M40.9,426.9L40.9,426.9l0.4,0.2l0.6,0.3l1.5,1l4.7-4.6l0.3-0.6l0.1-0.4l0.1-0.7l-0.3-0.5l-0.6-0.3
	l-0.7-1.8l2.1-3.3l0.5-0.6l0.2-2l-0.2-0.5l-1.1-0.1l-0.4-0.5l1.7-2.1l2.5-0.4l0.8,0.4l0.8,0.5l0.6,0.4l2.5,0.6l1.5,0l1.1,1.3
	l0.5,1.2l1.1,1.6l0.8,0.5l0.4,0.2l0.6,0.1l0.6,0.2l0.5,0.2l1.5,1.3l0.2,0.5l0.6,0.7l0.4,0.3l2.7,0.5l2.2-0.2l0.5-0.2l0.6,0.2
	l0.6,0.8v0.9l-0.1,0.7l0,0.7l0.1,0.5l0.4,1.3l0.2,0.5l0.6,0.5l0.3-0.6l0.2-0.6l0.3-0.3l1.6-0.8l1.2-0.6l0.3-0.3l0.3-0.8l1.9-0.4
	l4.2-0.1l1.1,0.2l0,0l0,1l-0.2,1.7l0.2,1.3l0.6,3l0.4,0.8l0.8,0.8L88,431l0.7,0.5l0.3,0.8l-0.1,0.7l-0.6,2.3l-1.1,1.2l-0.4,0.2
	l-0.9,0l-0.6-0.1l-0.5,0.1l-0.8,0.4l-2.5,1.5l-1.7,1l-0.5,0.3l-0.6,0.6l-0.3,0.5l-0.1,0.6l-0.1,1.2l0,0.6l0.2,0.6l0.2,1.5l0.3,2.6
	l-0.3,2.1l-0.8,2.4l-0.6,2.9l-0.1,0.9l-0.3,0.4l-1.7,0.1l-0.5-0.2l-0.7-1l-0.3,0l0,0l-0.1-0.5l-0.1-0.6l-0.2-0.6l-0.4-0.1l-1.2,0
	l-1-0.7l-0.5-0.5l-0.6-0.4l-0.5-0.2l-2.9-0.3l-0.5,0.1l-0.5,0.2l-0.5,0.5l-0.4,0.4l-0.5,0.3l-1.7,0.7l-0.7-0.1l-0.8-0.4l-2.7-0.9
	l-0.5,0l-1.4,0.3l-0.5,0l-0.6-0.1l-0.5-0.1l-0.5-0.3l-0.5-0.6l-0.5-1l-0.2-1.3l-0.4-0.3l-2.6,0.1l-0.9,1.1l-0.4,0.6l-0.5,0.5
	l-0.6,0.3l-0.6,0.1l-0.5-0.1l-0.5-0.1l-0.6-0.2l0,0l0.5-0.8l-0.1-2.6l-1-3.6l-3.2-9.1l-1-3.5l-0.4-2.7l0-0.7l0.3-1.3L40.9,426.9z"/>
<path id="CL-LI" class="st0" d="M74.2,329l1.8,0.7l2.9-0.2l1.1,2.1l2.3,1l1.5,2.1l0.1,0l1.7-0.1l1.5-0.3l-0.1-0.9L87,333l2.4-2.7
	l1.5-0.9l0.5,0.2l1.3-0.1l0.7-0.4l2.1-0.8h0.6l0.6,0.2l0.4,0.4l0.7,2.3l-0.2,1.1l1.3,0.4l0.4-0.1l0.5-0.4l0.5,0l0.3,0.2l0.2,0.9
	l-0.1,1.4l0.1,0.4l0.6,0.6l0.9,0.3l0.5,0.3l0.1,0.4l0,0.5l0,0l-0.1,0.2v1.3l0.1,1l-1.9,2.8l-1.5,2.8l-1.2,4.2l-1.1,3.1l0,0l-0.1,0
	l-1.1-0.1l-3.3-0.3l-2-1.6l-0.8-0.8l-0.4-0.2l-5-1.5l-0.7-0.2h-0.5l-3.2,0.3l-1.5,1.3l0.1,0.5l0.1,0.7l-2.8-0.5l-2.7-0.2l-1.8-0.6
	l-2.5-1l-0.6-0.9l-1-1.3l-0.3-0.2l-0.5-0.2l0,0l0.2-0.8l0.3-2.9L67,341l0-0.8l0.4-0.6l0.7-0.4l0.2-0.6l0-1.1l-0.1-1.6l-0.4-0.5
	l-0.1-0.4l0.1-0.7l2.1-3.9l0.5-0.6l0,0l0.8,0l0.5,0.4l0.7,0.2l0.6,0.1l0.6-0.8l0,0L74.2,329z"/>
<path id="CL-LL" class="st0" d="M20.5,552.2l-0.3,0.3l-0.4,0l-0.5-0.1l-0.3,0.1l-0.4,0.1l-0.2,0.1l-0.6,0.5l-0.2,0l-0.3-0.2l-0.6-1
	l-0.1-0.2l-0.1-0.2l-0.1-0.2l0.1-0.4l1.5-0.8l0.2,0l1.5,0.8l0.2,0.2l0.4,0.4L20.5,552.2L20.5,552.2z M42.5,525.8l0,0.8l-0.3-0.1
	l-0.2-0.6l-0.1-0.2l-0.1-0.2l-0.3-0.2l-1.7-0.9l-0.2-0.1l-0.6-0.1l-0.3-0.2l-0.5-1.4l0.1-0.2l0.3-0.1l0.4-0.1l0.6,0l0.4,0.1l0.3,0.3
	L42.5,525.8L42.5,525.8z M34,508.8l-0.4,0.5h-0.5l-0.5-0.3l-0.4-0.1l-0.3,0.5l0.6,0.7l1.6,0.6l0.5-0.4l0.7-0.5l1.9-1.2l1.8-0.2
	l0.5,0.1l1.3,0.8l-0.4,3.2l1.4,2.2l-0.3,0.8l-0.5,0.2l-0.1,0.5l0.2,0.7l1.2,0.8l0.5,0.1l0.5,1.4l-0.2,0.9l-0.2,0.5L41,521l-1-0.1
	l-0.4,0l-1.2,0.7l-0.4,0.3l-0.3,0.5l-0.1,2l0.6,0.6l0.5,0.3l0.3,0.3l-1.9,0.8l-1-0.9l0.3-1l-0.6,0.2l-0.5,1l0.2,2.2l3.4,3.4l0.9,0.3
	l1,0.7l0.3,0.3l0.3,1.3l-0.1,0.6l-1.4,0.2l-0.7-0.1l-0.6,0.3l-0.2,0.9l0.6,0.7l0.9,0.7l0.1,0.4l0.6,1.2l0.5,0.7l0.2,0.8l-0.4,0.4
	l-4-0.4l-0.7,0.3l0.3,2.1l0.4,0.5l0.5,0.4l0.3,0.9l-0.4,2.2l-0.4,0.2l-2.4,0.5l-0.6-0.5l-0.5-0.5l-0.5-0.2l-1.7-0.1l-1.9-0.3
	l-2.3-0.7l-1.6-0.9L25,544l-0.3-0.5l1.3-3.4l1.7-2.1l-0.3-0.8l0.6-0.5l0.8-2l0.6-5.8l-0.1-1.7l-0.3-1.3l-0.3-0.3l-0.4-0.3l0.3-2.1
	l0.4-4.4l0.2-0.4l0.3-0.5l0.4-0.5l0.8-0.8l0.6-1.9l0.6-3.6l-0.7-1.4l-0.2-0.5l0-0.5l0.6-0.9l2.1,0.2L34,508.8L34,508.8z M36.5,472
	l5.4,0.5l1.1,1.8l1.8,0.4l2.8-2.1l2.8,1l1.8,3.2l2.5,1.8l3.2,2.8l3.5,1.4l2.1-2.5l1.4-2.1l2.8-0.4l3.3,0.4l0,0l-0.1,1l0,0.6l-0.4,1
	l-0.4,0.5l-0.4,0.4l-0.5,0.5l-0.4,0.6l0.6,1.9l1.1,2.5l0.2,1l-0.4,1.3l0.3,1.1l-0.4,4.3l-0.1,0.6l-0.3,0.7l-0.3,1.5l0.1,0.7l0.5,1.1
	l0.3,2.8l-0.8,1.3l-0.4,0.5v0.7l1.1,2.7l1.1,2.3l0.2,0.6l0.3,1.4l0.1,1.3l0.5,0.7l0.1,1.6l-0.9,0.8l-2.3,1.1l-0.6-0.1l-0.2-0.6
	l-0.3-0.4l-0.6-0.1l-0.4,0.2l-0.4,0.4l-1.7,3.3l0.4,0.7l0.9,0.8l0.2,0.5l-1.2,3.8l-0.3,0.5l-0.2,0.5l-0.1,0.5l0.2,1.9l0.3,1.3l0.1,1
	l0.1,2.3l-0.1,0.7l-0.2,0.8l-0.2,0.5l-0.1,0.5l-0.1,1.2l0.3,0.8l0.7,1.2l0.5,0.4l1,0.4l0.7,0l0.5,0l1.1,0.1l0.6,0.2l1.7,1.1l0.1,2.5
	l-0.1,0.5l-0.3,0.2l-0.7-0.2l-1.8,0.6l-0.6,1.5l-0.1,1.6l1.6,1.2l2.6,2.5l0.2,1.6l-0.2,0.6l-1.1,0.8l-0.4,0.1l-0.4,0.2v0.7l0.9,1.4
	l1,1.2l0,0l-1.4-0.6l-0.6,0l-2.5,1.2l-0.3,1l-2.5,0.3l-0.1-1l-0.3-0.7l-0.6-0.8l-0.5-0.4l-0.8-0.1l-0.4-0.2l-1.4-2.3l-0.1-1
	l-0.9-0.3l-0.6,0.4l-0.8,0.8l-0.6,0.9l-0.3,1l-3.5-0.6l-1.1-0.3l-0.4-0.3l-1.2,0l0,0v-1l-0.3,0.8l0,0l-0.3,0l-0.5-0.2l-0.7-0.7
	l-0.9,0.2l-0.8,0.5l0,0l-0.1-0.9l0.1-2.9l-1.2-2.9l-0.2-0.6l0.6-3.2l0.4-0.4l0.7-0.5l0.5-0.3l0.4-0.2l0.4-0.1l0.6-0.3l0-1.8l-0.3-1
	l0.1-0.6l0.7-1.3l0.6-0.7l0.6,0l1.3,0.9l0.1-3.3l-0.6-0.7l-0.5-0.3l-0.5-0.5l-0.3-0.7l-0.3-1.4l0-1.3l0.1-3.4l0.6-1.6l0.4-0.2
	l1.6,0.1l0.5,0.1l0.4,0.5l1.4,0.9l0.5,0.2l0.2-0.3l-0.5-0.7l-0.8-0.2l-0.6-0.3l-0.7-0.6l-3-4.6l0.9-1l0.9-0.6l2.6-0.8l0.6,0.3
	l0.5,0.9l0,0.5l1.6,4.7l0.3,0.2l0.3-0.4l-0.2-1.8l-0.6-3.2l-0.2-1l-0.2-1.8l0-0.7l0.1-0.9l0.1-0.6l0.2-0.6l0.1-0.8l-0.3-0.3l-0.8,0
	l-0.6,0.7l-1.2,0.7l-2.3-0.3l-1.4-0.8l-0.7-1.1l0.2-0.6l1-1.5l2.7-2.8l0.7,0l0.6,0.1l1.9-0.4l1.3-0.6l1-0.9l0.3-0.4l0.4-4.8
	l-0.7,0.2l-0.6,4.3l-0.4,0.8l-1.3,0.6l-1.8,0.6l-0.6,0l-0.4-0.2l-0.7-0.6l-0.5-1.6l-0.6-0.9l-1.2-1.4l-0.7-0.4l-1.7-0.4l-1.4,0.4
	l-0.6,0.3l-1.1,1.8l0.3,0.9l0.3,0.3l0.3,1.4l-1.3,1.3l-1.2,0.9l-0.6,0.1l-1.3-0.3l-0.6-0.2l-1.2,0l-0.4,0.2l-0.9,0.4l-0.5,0.2
	l-0.3,0l-1.1-0.7l-2.1-0.4l-0.9-0.1l0.3-1.8l0.8-1.2l0.3-0.2l0.6,0l0.6,0.1l0.7-0.2l1.2-2.2l-0.6,0.5l-0.4,0.8l-0.4,0.5l-0.5,0.2
	l-2.2-0.2l-1.1-0.7l-1.7-2l0-0.9l0.3-0.8l-0.1-1.6l-0.2-0.9l-0.6-1.7l-0.6-0.7l-0.3-0.6l-0.4-2.3l-0.4-2.7l0.9-2.6l2.1-5.6l0.8-1.1
	l0.7-1.6l-0.1-0.9l-0.5-1.3L36.5,472L36.5,472z"/>
<path id="CL-ML" class="st0" d="M85.6,385.3l-0.1-0.1l-0.5-0.6l-0.2-0.8l-0.1-0.7l-0.6-0.3l-0.4,0.1l-0.3,0.3l-1.4,1.8l-0.1,0.6
	l-0.1,0.5l-0.5,0.6l-0.7-0.1l-1.8-1l-0.4-0.4l-1.9-1.6l-1.5-0.5l-1.1-0.4l-0.7-0.4l-0.4-0.4l-0.2-0.6l-0.5-1l-1.2-0.2l-0.4,0.1
	l-0.5,0.2l-0.4,0l-1-0.2l-0.3-0.3l-0.1-0.4l-0.2-0.6l-1.4-1.5l-0.1,0.7l0,0.6l-1.3,1.5l-2.2-0.1l-0.5-0.2l-3.4-1.8l-2.6-2.3
	l-0.1-0.8l-0.3-0.3l-2-0.9l0,0l0.3-0.2l0.9-0.8l1.9-2l0.2-0.5l0.2-0.7l0-0.8l-0.4-1l-0.8-1.9l0.1-0.6l0.4-0.5l0.7-0.4l1.2-1l1.1-2.9
	l0.6-1.8l0.3-0.5l0.8-0.9l0.6-0.4l0.7-0.4l1-1l0.4-0.8l0.2-1l0.1-0.7l0-0.8l0-0.6l0.2-1.2l1-2.2l0.4-0.4l0.4-0.5l0.4-1.3l0,0
	l0.5,0.2l0.3,0.2l1,1.3l0.6,0.9l2.5,1l1.8,0.6l2.7,0.2l2.8,0.5l-0.1-0.7l-0.1-0.5l1.5-1.3l3.2-0.3h0.5l0.7,0.2l5,1.5l0.4,0.2
	l0.8,0.8l2,1.6l3.3,0.3l1.1,0.1l0.1,0l0,0l0,0.2l0,0.8l0,0.8l0.1,0.5l-0.1,1l-0.3,0.5l-1.3,0.6l-0.6,0.1l-0.6,0l-0.4,0.1l-0.4,0.7
	l0,0.6l0.3,0.6l0.3,0.3l2,1.2l0.5,3.3l-0.1,2.2l-0.3,0.5l0.2,0.8l0.6,1.4l0.6,1.7l-0.6,0.5l-0.5,0.8l-0.2,0.5l0.1,1.7l0.2,2.3
	l-0.5,1.3l-0.3,0.3l-0.5,0.3l-0.7-0.1l-1.5,0.1l-2.1,2.4l-0.2,1.6l0.4,1l-0.2,0.5l-4.4,1.6l-0.5-0.1L85.6,385.3z"/>
<path id="CL-AP" class="st0" d="M122.7,28.8h-2.7l-1.8,1.8l-0.4,2.1L115,33l-2.8-2.1h-4.9l-2.8,2.1l-2.8,1.8l-2.9,0.1l0,0l0-0.8
	l0.2-0.5L99,32.9L98,27.7L97.7,27l-0.2-3.7l0.2-1.1l0.5-2.6l-0.5-0.7l-0.5-0.5L96.7,18l-0.2-0.1l0.3-0.3l0.4-0.2l0.7-0.1l1.4,0.2
	l0.9,0.1l0.4,0l0.8-0.2l2.6-1l0.6-0.4l1.6-1.7l0.4-0.5l0.9-1.7l0.4-1l0.1-0.6l-0.8-2.8L107,7.3L106.7,7l-0.2-0.3l0.1-0.8l0.2-0.5
	l0.4-0.5l0.8,0.1l1.6,0.1l3.3-3l0.2,2.4l2,1.8l0.4,0.3l0.5,1l0.2,0.5L116,9.3l0.1,0.7l0.2,0.5l0.3,0.4l2.8,0.9l1.1,0.2l0,0.6
	l-0.2,0.4l-0.7,0.4l-0.4,0.3l-0.2,0.5l0.2,0.6l0.4,0.4l0.4,0.5l0.3,3.1l0.3,0.4l0.4,0.5l0.2,0.3l0.1,0.5l0,0.5l-0.1,1l0.1,1l0.1,0.9
	l0.4,1.6l0.9,1.9L123,28L122.7,28.8z"/>
<path id="CL-LR" class="st0" d="M70.8,478.1l-3.3-0.4l-2.8,0.4l-1.4,2.1l-2.1,2.5l-3.5-1.4l-3.2-2.8l-2.5-1.8l-1.8-3.2l-2.8-1
	l-2.8,2.1l-1.8-0.4l-1.1-1.8l-5.4-0.5l0,0l0.4-2.2l1.2-1.5l-0.1-1.4l-0.2-0.6l-0.5-0.6l-0.2-0.5l0.4-0.6l0.3-0.3l3.4-1.7l1.6,0.3
	l0.5-0.7l0-2.8l1.3-3.4l0.3-0.5l0.6-1.7l0.6-1.8l-0.4-0.7l0,0l0.6,0.2l0.5,0.1l0.5,0.1l0.6-0.1l0.6-0.3l0.5-0.5l0.4-0.6l0.9-1.1
	l2.6-0.1l0.4,0.3l0.2,1.3l0.5,1l0.5,0.6l0.5,0.3l0.5,0.1l0.6,0.1l0.5,0l1.4-0.3l0.5,0l2.7,0.9l0.8,0.4l0.7,0.1l1.7-0.7l0.5-0.3
	l0.4-0.4l0.5-0.5l0.5-0.2l0.5-0.1l2.9,0.3l0.5,0.2l0.6,0.4l0.5,0.5l1,0.7l1.2,0l0.4,0.1l0.2,0.6l0.1,0.6l0.1,0.5l0,0l-0.1,0.2
	l-0.3,1.2l0.1,2.4l0.6,3l0.6,2.2l-0.6,2.3l-1.5,1l-0.7,0.6l-0.5,2.1l0.5,1l1.3,1.3l0.3-0.5l0.6,0.4l0.1,0.9l-0.7,1.6l-0.3,0.4
	l-0.4,0.1l-0.4-0.4l-0.4,0L70.8,478.1z"/>
<path id="CL-BI" class="st0" d="M83.8,399.7l-0.4,0.1l-0.7-0.5l-0.5,0.2l-0.7,0.2l-0.7-0.2l-0.5-0.5l-0.5-0.2l-0.5-0.2l-0.3,0.4
	l-0.4-0.1l-0.6-0.4l-0.1-0.5l-0.6-0.5l-0.5-0.4l-0.5,0.2v1.4l-0.2,0.5l-0.1,0.8l-0.4-0.2l-0.6,0.2h-0.7l-0.5,0.4l-0.5-0.4l-0.5-0.2
	l-0.8-0.3l-0.7,0.1l-0.5,0.2l-0.3,0.7l-0.4,0.4l-0.7,0.3l-0.8,0.1h-0.5l-0.8-0.5h-0.3l-0.2,0.4h-0.4l-0.9-0.2l-0.7,0.5l-1.2-0.3
	l-0.7,0.2v-1.5l0.2-0.8l0.6-0.3l0.7-0.8l-0.2-0.5l-0.4-0.2l-0.5-0.4h-0.7l-0.8-0.5l-1-1.5l-0.4,0.4l-0.9-0.1l-0.3-0.6H59l-0.3,0.6
	l-2.6-0.2l0.2-0.8l1.6,0.1l-0.2-0.5l0.4-0.6l-0.6-0.4l-0.3-1.2l0.1-0.5l-0.2-0.9l-1-1.1l-1-0.2l-0.4-0.8l-0.4-0.4l-0.5,0.2l-0.4-1.3
	l-0.2-0.7l0.4-0.5l-0.1-0.9h-0.8l-0.2-0.8v-0.3l-0.1,0.2l-0.8,2.2l-0.7,2.5l-0.4,1.7l-0.3,0.3l-0.4,0.2h-0.4l-0.6-0.1l-0.4-0.4
	l-0.6-0.3l-0.3,4.3l-0.3,4.1l-0.4,1.7l-0.3,0.6l-0.4,0.6l-0.4,0.3l-0.7,0.3l-1,0.3l-0.5,0.1l-0.4,0l-0.8,0l-1.4-0.7l-0.5-0.3
	l-0.8-0.9l-0.7,0.5l-0.2,0.5l-0.7,3.3l0.2,0.4l0.5,0.4l0.4,0.5l0.3,0.7l0.1,0.8l-0.2,0.9l-0.5,0.5l-0.7,0.9l-0.2,0.6l0.3,2.8
	l1.1,1.2l1.3,2.2l0.8,1.9l0.4,1.2l0.2,0.9l-0.3,3.4l-0.2,0.5l-0.4,0.4l-0.3,0.6l0.3,1.2l0.1,0l0.4,0.2l0.6,0.3l1.5,1l4.7-4.6
	l0.3-0.6l0.1-0.4l0.1-0.7l-0.3-0.5l-0.6-0.3l-0.7-1.8l2.1-3.3l0.5-0.6l0.2-2l-0.2-0.5l-1.1-0.1l-0.4-0.5l1.7-2.1l2.5-0.4l0.8,0.4
	l0.8,0.5l0.6,0.4l2.5,0.6l1.5,0l1.1,1.3l0.5,1.2l1.1,1.6l0.8,0.5l0.4,0.1l0.6,0.1l0.6,0.2l0.5,0.2l1.5,1.3l0.2,0.5l0.6,0.7l0.4,0.3
	l2.7,0.5l2.2-0.2l0.5-0.1l0.6,0.2l0.6,0.8v0.9l-0.1,0.7l0,0.7l0.1,0.5l0.4,1.3l0.2,0.5l0.6,0.5l0.3-0.6l0.2-0.6l0.3-0.3l1.6-0.8
	l1.2-0.6l0.3-0.3l0.3-0.8l1.9-0.4l4.2-0.1l1.1,0.2l0-0.9l-1.7-4.3l-0.5-1l-0.2-1.1l-0.4-1l-0.3-1.1l0-0.8l0.1-0.7l0.3-0.4l0.6-0.5
	l0.3-2.9l-0.2-0.5l-0.5-0.7l-0.4-0.6l-0.5-1.7l0.2-0.8l0.6-0.7l0.3-1L83.8,399.7L83.8,399.7z"/>
<path id="CL-NU" class="st0" d="M53.9,373.9l-0.3,0.3l-0.4,3.2l-0.4,4.5l-0.7,1.8v0.3l0.2,0.8h0.8l0.1,0.9l-0.4,0.5l0.2,0.7l0.4,1.3
	l0.5-0.2l0.4,0.4l0.4,0.8l1,0.2l1,1.1l0.2,0.9l-0.1,0.5l0.3,1.2l0.6,0.4l-0.4,0.6l0.2,0.5l-1.6-0.1l-0.2,0.8l2.6,0.2l0.3-0.6h0.5
	l0.3,0.6l0.9,0.1l0.4-0.4l1,1.5l0.8,0.5h0.7l0.5,0.4l0.4,0.2l0.2,0.5l-0.7,0.8l-0.6,0.3l-0.2,0.8v1.5l0.7-0.2l1.2,0.3l0.7-0.5
	l0.9,0.2H67l0.2-0.4h0.3l0.8,0.5h0.5l0.8-0.1l0.7-0.3l0.4-0.4L71,400l0.5-0.2l0.7-0.1l0.8,0.3l0.5,0.2l0.5,0.4l0.5-0.4h0.7l0.6-0.2
	l0.4,0.2l0.1-0.8l0.2-0.5v-1.4l0.5-0.2l0.5,0.4l0.6,0.5l0.1,0.5l0.6,0.4l0.4,0.1l0.3-0.4l0.5,0.2l0.5,0.2l0.5,0.5l0.7,0.2l0.7-0.2
	l0.5-0.2l0.7,0.5l0.4-0.1l0-0.1l-0.6-3.1l-0.7-2.9l0.9-2.3l1.5-4.3l0.4-1.4l0.3-0.2l-0.1-0.1l-0.5-0.6l-0.2-0.8l-0.1-0.7l-0.6-0.3
	l-0.4,0.1l-0.3,0.3l-1.4,1.8l-0.1,0.6l0,0.5l-0.5,0.6l-0.7-0.1l-1.8-1l-0.4-0.4l-1.9-1.6l-1.5-0.5l-1.1-0.4l-0.7-0.4l-0.4-0.4
	l-0.2-0.6l-0.5-1l-1.2-0.2l-0.4,0.1l-0.5,0.2l-0.4,0l-1-0.2l-0.3-0.3l-0.1-0.4l-0.2-0.6l-1.4-1.5l-0.1,0.7l0,0.6l-1.3,1.5l-2.2-0.1
	l-0.5-0.2l-3.4-1.8l-2.6-2.3l-0.1-0.8l-0.3-0.3L53.9,373.9L53.9,373.9z"/>
<polygon class="st1" points="46.6,779.6 46.2,779.6 45.6,779.4 45,777.9 44.7,774.6 44.5,771.4 44.2,768.9 43.9,768.3 43.1,767.3 
	43.3,768 43.8,769.5 44,771 44.9,780.6 44.8,781.6 44.3,781.9 43.7,781.5 40.1,778.5 39.8,778.1 39.5,777.2 39.6,776.1 39,774.2 
	38.3,772.1 39.2,771.5 39.4,772.2 40.8,775.4 42.2,777.6 42.8,777.4 41.4,774.3 39.4,769.8 40.1,769.5 40.7,769.1 41.5,768 
	38.9,768.8 37.3,770.8 36.2,768.6 35.7,766.6 34.6,766.3 33.7,766 33.2,760.5 33.3,759.9 33.7,758.9 35.3,759.4 37.2,761.5 
	37.7,762.7 38.6,765 38.8,766.3 39.1,766.1 39.2,765.4 37.4,760.1 35.9,754.4 36.6,753.9 37.3,755 37.5,755.8 37.1,752.7 
	36.7,752.2 36.3,752.5 34.5,754.6 34.1,754.9 33.7,755 30.4,754.1 29.6,753.4 29.2,750.2 28.1,749.4 27.7,749.1 27.5,746 
	27.9,745.3 28.7,744.7 29.5,744.4 33.6,744.4 34,744.7 34.6,745.7 35.9,742.2 35.9,739.3 36.4,738.5 37.9,738 38.5,738 39.6,738.7 
	39.8,739.6 40.3,740 40.9,738.7 39.8,737.6 38.9,737.5 38.2,737.2 37,735.9 36.9,735.2 37.3,734.6 37.7,734.4 38.3,734.3 38.8,734 
	39.1,733.6 39.7,731.2 36.3,734.5 36,735.1 35.6,736.9 35.1,739.3 35.2,740 35.3,740.8 35.1,741.4 33.2,743.2 32.9,743.4 
	31.2,743.2 29.8,741.6 29.1,739.8 27.8,736.9 26.8,733.4 28.1,732.9 29.8,733.6 30.2,733.9 30.6,734.3 31,734.6 31.6,734.9 
	33.9,735.3 33,734.6 32.1,734.3 30.6,733.2 29.8,732.2 26.7,732 23.4,729.6 19.6,725.7 19.5,724.9 19.9,724.2 20.5,723.4 
	21.4,722.8 23.1,722.2 24.2,722.6 25.7,722.4 26.7,723.7 27,724.6 28.3,726 32.6,728 33.8,728.2 34.1,728.3 34.3,728 29.6,725.8 
	29.2,725.8 28.8,725.6 28.2,725 25.3,719.7 25.5,718.6 25.9,717.9 27.1,718.1 28,718.4 29.7,720.3 33.9,722 34,721.2 33.7,720.4 
	31.8,719.6 30.2,718.9 26.6,717 26.1,716.3 25.7,714.4 27.5,713.4 28.5,713 29.3,712.9 29.9,713.1 30.6,712.9 30.8,712 28.5,712.4 
	26.9,712.8 26.6,712.7 26.2,711.6 26.1,710.2 26.2,709.5 27.6,708.1 29.9,707.2 30.4,707.1 32.9,707.7 33.2,708.3 33.6,709.9 
	34.1,710.7 34.7,711 35.3,711.2 36.4,712.4 36.9,714.1 37.1,713.2 36.7,711.9 36.3,710.9 36,710.6 34.6,710.4 34.1,708.5 34.2,707 
	33.5,706.4 32.1,706.6 30.2,706 29.9,705.6 29.7,703.7 30.4,700 30.7,699.5 31.3,699.5 31.9,700.1 32.1,700.7 32.5,701.3 
	33.4,701.9 34,702 34.7,701.8 33.9,701.4 33.3,701.2 33,701 31.9,699.3 31.4,694.9 31.6,694.4 32.2,693.6 32.5,693.2 32.9,693 
	33.5,693 34,693.4 34.4,693.7 35,693.8 34.9,693.2 33.8,692.6 31.1,692.9 31,694 31.2,696.5 30,698.8 29.2,701.1 29,702.6 
	28.4,706.3 28,706.9 27.6,707 27.2,706.7 25.2,704 24.8,701.7 24.8,696.7 24.8,691.3 24.5,690.4 24.2,689.5 23.8,688.2 23.8,687.3 
	24,686.7 25.1,684.9 25.9,685.4 26.4,685.6 26.8,685.5 27.5,685 28.1,684.8 29.6,684.9 30.8,685.4 30.8,685.4 37,690.8 41.3,694.5 
	46.6,699.1 46.9,699.3 46.9,699.3 48.3,699.7 47.5,700.7 42.3,700.8 41.6,700.9 40.2,704.5 39.4,707.2 39.7,707.7 40.6,709 
	41.9,714.1 41.5,714.6 40.9,715.2 40.4,715.9 39.9,718.3 40.7,719.1 41.1,719.5 41.4,720 41.4,720.8 40.9,721.5 40.5,722.4 
	40.3,723.3 40.5,724.1 42.1,725.3 43.6,726.6 43.9,727 44.2,727.4 44.9,729.2 45.1,729.9 45.4,734 45.8,736.7 46.7,740.7 
	47.1,741.3 47.4,741.6 47.9,741.7 48.4,741.6 49,741.4 49.6,741 50.2,740.5 51.3,739 51.6,738.7 52.2,738.3 54.1,737.4 54.6,737.4 
	55.1,737.9 55.5,738.3 55.8,738.6 56.4,738.9 57,738.8 57.3,738.5 57.7,737.7 58.1,737.2 58.6,737 59,736.9 61.2,737.2 62.6,738.3 
	62.5,739 61.8,740.5 61.9,741.2 62.4,741.9 62.8,742.5 63.3,743.4 63.5,744 63.1,748.5 62.8,749 61.9,749.1 60.8,751.3 61.1,752.7 
	61.5,753.3 62,753.7 62.6,754 63.4,755 63.1,755.8 62.6,756.3 62.3,757.1 62.2,758.5 62.3,759.6 61.6,762.1 61.2,762.5 60.7,762.9 
	62.7,768.1 63.2,768.5 64.1,768.6 64.6,768.8 65,769.1 65.4,769.4 66.3,770.1 68.6,772.7 68.9,773.5 68.9,774.5 69.5,776.9 
	73.3,776.9 81.6,776.9 96,776.9 101.8,776.9 103.8,776.9 104.8,777.3 108,778.7 113.5,781.2 116.6,781.2 117.6,781.2 121.2,782.7 
	121.9,783 122.9,783.7 124.9,785.1 126.7,785.4 128.1,785.7 129.4,785.9 131.9,786.6 131.8,788 131.2,786.7 130.6,786.5 127.5,786 
	125.4,785.9 125,785.9 122.8,785.5 122.1,785.2 121.7,784.9 121,784.2 120.5,783.9 119.7,783.3 119,783 118.4,783 118,783 
	117,783.1 113.8,784.5 113.3,784.9 113.1,785.3 113.1,786.2 113,788.2 111.8,790.2 111.3,790.8 110.4,791.7 110.1,792.2 
	109.7,792.5 107.7,792.2 107.2,791.7 105.4,792.1 101.3,793.9 100.8,794.2 94.9,797.7 94.3,797.8 91.5,798.1 89.2,798.5 88.7,802.9 
	88.9,803.7 89.3,804.1 89.2,806.3 87.9,810.4 87.5,811 87.1,811.4 86.8,812.1 86.7,813 86,818.1 86,819 86.1,819.8 86.3,820.8 
	86.6,821.5 86.8,822.5 86.9,823.4 87,824.5 86.9,825.5 86.3,829.3 85.9,830.1 85.1,831.2 81.7,832.8 80.8,833.2 77.8,831.6 
	77.2,831.4 76.4,831.3 75.6,831.3 75.2,831.3 74.5,831.2 73.3,830.8 70.6,828.8 69.1,828.4 67,827.8 65.9,827.1 62.8,823.9 
	61.7,822.3 60.8,820.9 60.4,820.1 59.8,818.6 60.3,816 62.8,813.8 65.9,814.2 66.4,815.6 66.6,816.2 66.5,817.3 66.2,818.1 
	65.1,818.8 63.8,819.5 64.5,819.8 66,819.3 66.7,818.9 67.7,818.2 67.8,817.5 67.7,816.5 67.6,815.3 67.5,814.7 67.7,813.7 
	68.1,813.1 70.3,813.1 70.8,813.8 71.8,819.3 71.5,820.1 71.2,820.4 70.6,820.9 68.9,821.9 68.4,822.1 67.8,822.6 67.8,823.4 
	68,823.6 68.8,823 71,822.2 71.5,821.9 72.3,820.3 72.2,818.4 71.9,816.9 72.1,815.1 72.6,812.9 77.3,810.5 77.8,810.5 78.3,810.5 
	78.9,810.3 79.2,810.1 79.6,809.8 79.9,809.5 83.5,803.2 83.7,802.4 82.9,800.8 81.3,800.4 79.6,800.3 75,802.8 71.2,805.2 
	69.7,806.4 69.4,807.2 67.5,810.2 66.5,810.5 66,810.4 65.3,810 65,809.5 64.6,808.8 64.3,808.2 63.9,807.8 62.4,807.3 58.6,808.3 
	58.1,808.9 59.5,808.7 61.3,808.7 64.1,811.1 64.5,811.9 64.3,812.5 61.7,813.2 61.2,813.1 60.5,812.5 59.2,812.1 58.3,812.5 
	58.8,813.3 59.4,813.6 59.8,813.6 60.3,813.9 58.6,817.4 58,817.6 57.1,817.3 56.5,816.6 56.2,816.2 56.4,817.3 57.9,819.1 
	58.4,818.7 58.9,818.6 60.7,821.4 61,822.1 60.7,822.7 58.9,822.9 58.8,823 58.3,822.4 54.7,819.5 52.3,818.1 51,817.1 50.6,816.6 
	48.7,815 48.3,814.9 47.8,814.8 47.3,814.7 46.1,813.5 44.5,811.3 48.5,811.5 49.9,811.2 50.9,811.4 52.6,812.8 53.9,815 
	54.3,815.4 55.1,815.3 55.4,813.7 54.4,812.8 53.6,812 54.2,810.7 55.1,810.9 56.1,810.9 55.2,810.3 54,810.1 53.5,810.2 53,810.8 
	52.6,810.9 51,809.6 51.5,809 51.7,808.7 52.1,807.3 51.4,806.3 50.8,804.6 50.7,802.3 51.4,801.3 54.9,799 57.4,800.5 59.5,801.2 
	60.3,800.9 62.4,799.1 64.6,796.6 64.8,796 67.8,795.6 69.8,797 70.6,797.2 71.6,797.3 73,797.2 73.6,797.2 74.2,797.1 74.8,796.9 
	77.3,795.6 76.6,793.8 76.1,793.4 75.4,793.4 74.9,793.5 74.4,793.5 72.1,793.1 69.4,792.5 65.5,792.1 62.9,792.2 62.3,792.3 
	61.7,793.1 61.3,794.2 60.3,796.3 58.1,794.3 58.9,793.1 59.4,792.7 60,792.8 60.8,792.3 60.4,791.8 58.5,792.5 58.1,792.8 
	56.6,793 53.7,793 51.8,795.4 52.1,795.8 53.4,794.9 55.7,795.8 55.7,796.5 54.4,798.5 53.5,799.3 52.4,800.4 51.3,800.6 
	50.8,800.7 50.3,801.4 49.8,802.2 50.4,804 50.9,806 50.8,807.3 50.3,808.5 48.4,809.1 48.3,809.2 47.7,809.6 46.3,809.7 
	44.2,808.8 41.9,806.6 44.3,804.7 45.7,803.3 43.5,802.9 39.9,800.7 40.9,799.9 42.5,800 43,800.6 45.8,800.2 45.4,799.3 
	45.3,798.2 48.1,791.9 48.9,791.5 50.4,791.8 51.4,792.1 51.9,792.2 51.4,791.5 49.7,791.2 49.2,791.1 48.6,791.1 47.3,791.4 
	46.8,791.9 47.1,793.5 46.9,794 45.2,796.7 44.5,796.8 44.1,796.5 43.9,795.9 43.9,794.6 43.4,794.3 42.9,794.5 40.9,796.2 
	39.9,797.2 39.3,798.4 39,799 37.5,798.2 37.7,794.6 38.7,793.4 39.4,793.2 39.9,793.4 40.1,792.9 39.2,792.7 38.9,792.1 38,789.4 
	38,788.5 38.3,788 38.8,788.1 39.4,788.2 39.8,786.7 39.5,783.9 38.4,782 37,779.9 36.7,779.1 36.8,778.1 37.4,777.7 37.8,778.2 
	38.1,779.3 40.2,782.7 40.8,782.8 41.6,782.1 43.8,783.5 44.2,783.6 45.2,783.4 45.6,783 46.1,781.7 47,780.3 48.2,779.7 49.5,779 
	50.2,779.1 50.3,781.2 50.2,782.5 51.6,784.4 52.4,784.8 53,784.1 54,780 53.8,778.9 53.3,779.5 52.7,781 52.7,781.8 52.2,783 
	51,782.1 51,779.6 52.5,775.9 53.5,775.3 55.5,776.8 55.4,778.4 56.1,779.6 56.8,780 57.1,780.3 58,782 58.4,782.9 57.6,786.5 
	57,787.2 54.6,788.2 51.3,790.3 51.8,790.5 53.2,790 56.6,788.6 57.5,788 59.1,786.3 59.6,783 59.3,782.4 58.1,780.9 56.3,778.6 
	56,776.1 56.6,775.5 58.6,775.8 59.1,775.6 59.5,775.2 59.8,774.7 59.5,770.9 58.9,769.2 56.1,765.9 55.2,765 54.7,764.8 
	53.9,764.6 53.1,764.6 51.5,763.9 49,762.2 48.6,761.5 47.9,761 47.1,761.1 45.7,761.5 45.2,762.1 45.4,762.6 46.1,762.9 
	46.6,762.8 47.3,762.3 48.8,762.8 50.4,763.6 52.7,765.6 55.2,768.2 55.6,768.4 57.7,769 58.1,769.5 57.8,770.9 56.7,772.2 
	55,772.3 53.8,771.5 53.3,770.5 50.4,769.2 46.8,766.5 45.6,765.8 44.9,765.9 45.9,768.6 46.5,769 47.2,769.1 47.7,769.1 
	48.3,768.8 49,769.2 49.4,769.7 50,770.7 48.9,772.6 48.5,772.9 47.8,773 46.6,773.4 48.7,773.1 49.9,772.2 50.5,771.8 51.1,772.2 
	51.3,773 50.7,773.6 49.5,774.2 48.4,774.7 47.5,775.3 47.2,776.1 46.6,779.6 "/>
</svg>
